<svg width="486" height="349" viewBox="0 0 486 349" fill="none" xmlns="http://www.w3.org/2000/svg">
<path d="M124.524 200.2C134.465 242.409 234.93 309.404 266.131 252.308C282.555 222.254 332.777 178.092 371.736 151.563C409.619 125.767 298.395 86.0248 230.129 99.4556C161.863 112.886 114.582 157.991 124.524 200.2Z" fill="#FFE3CB"/>
<path d="M238.263 146.456H169.129C167.978 146.456 167.046 147.308 167.046 148.359V184.682C167.046 185.733 167.978 186.585 169.129 186.585H238.263C239.413 186.585 240.346 185.733 240.346 184.682V148.359C240.346 147.308 239.413 146.456 238.263 146.456Z" fill="#6C7FD8"/>
<path d="M204.311 185.192C205.389 185.192 206.262 184.393 206.262 183.409C206.262 182.424 205.389 181.626 204.311 181.626C203.234 181.626 202.361 182.424 202.361 183.409C202.361 184.393 203.234 185.192 204.311 185.192Z" fill="#E5E1E5"/>
<path d="M390.678 141.181C389.301 143.782 386.92 146.255 383.555 148.545L383.14 148.037C390.947 142.722 393.25 136.693 389.986 130.123C384.024 118.122 359.82 105.436 326.82 97.0189C292.168 88.1798 255.257 86.0944 228.081 91.4413C153.502 106.114 101.652 155.52 112.501 201.578L111.822 201.711C100.893 155.312 152.981 105.567 227.936 90.8205C255.216 85.4538 292.251 87.5419 327.007 96.4075C360.199 104.874 384.574 117.693 390.618 129.86C392.568 133.787 392.571 137.606 390.678 141.181Z" fill="#FFE3CB"/>
<path d="M114.534 257.719C113.85 256.677 97.7418 232.142 95.1362 225.792L95.7864 225.569C98.3697 231.865 114.962 257.137 115.129 257.391L114.534 257.719Z" fill="#8B9D36"/>
<path d="M101.085 212.317C100.383 213.905 99.8455 215.55 99.481 217.23C99.1082 218.875 98.8346 220.538 98.6613 222.211C98.4833 223.884 98.4079 225.564 98.4355 227.244C98.4459 228.957 98.6355 230.666 99.0016 232.346C99.7073 230.759 100.246 229.114 100.609 227.433C100.983 225.788 101.255 224.124 101.425 222.451C101.6 220.779 101.674 219.098 101.647 217.418C101.636 215.705 101.447 213.997 101.085 212.317Z" fill="#8B9D36"/>
<path d="M107.209 219.969C106.353 221.449 105.657 223 105.128 224.602C104.594 226.167 104.158 227.759 103.82 229.37C103.478 230.98 103.237 232.606 103.098 234.241C102.94 235.908 102.96 237.585 103.158 239.249C104.016 237.771 104.715 236.219 105.243 234.617C105.777 233.052 106.212 231.459 106.547 229.848C106.886 228.238 107.125 226.612 107.265 224.977C107.422 223.31 107.403 221.633 107.209 219.969Z" fill="#8B9D36"/>
<path d="M110.583 228.878C109.83 230.253 109.236 231.696 108.811 233.184C108.382 234.633 108.051 236.105 107.82 237.592C107.584 239.077 107.45 240.575 107.419 242.076C107.37 243.613 107.5 245.151 107.805 246.663C108.562 245.29 109.157 243.846 109.581 242.358C110.01 240.909 110.34 239.437 110.568 237.95C110.801 236.464 110.934 234.966 110.965 233.465C111.013 231.928 110.885 230.391 110.583 228.878Z" fill="#8B9D36"/>
<path d="M114.832 237.771C114.076 238.923 113.473 240.153 113.036 241.435C112.598 242.674 112.257 243.939 112.016 245.222C111.77 246.504 111.625 247.8 111.584 249.101C111.524 250.444 111.642 251.788 111.935 253.105C112.694 251.954 113.299 250.724 113.735 249.441C114.173 248.202 114.513 246.937 114.752 245.654C114.994 244.371 115.138 243.074 115.18 241.773C115.239 240.431 115.122 239.088 114.832 237.771Z" fill="#8B9D36"/>
<path d="M118.581 243.329C117.81 244.328 117.173 245.408 116.685 246.546C116.206 247.633 115.808 248.748 115.492 249.884C115.18 251.011 114.939 252.154 114.772 253.307C114.694 253.888 114.623 254.465 114.575 255.054C114.551 255.654 114.481 256.252 114.366 256.843C114.526 256.765 114.68 256.676 114.827 256.577L115.201 256.235C115.44 256.001 115.658 255.75 115.856 255.486C116.236 254.977 116.572 254.442 116.862 253.885C117.425 252.803 117.868 251.672 118.183 250.509C118.504 249.357 118.712 248.181 118.805 246.994C118.917 245.769 118.841 244.535 118.581 243.329Z" fill="#8B9D36"/>
<path d="M97.4436 229.609C96.1836 228.346 94.7659 227.223 93.2195 226.261C91.7297 225.315 90.1697 224.465 88.5508 223.717C86.9342 222.964 85.2614 222.317 83.545 221.78C81.7819 221.209 79.9509 220.831 78.0903 220.655C79.3475 221.92 80.7646 223.045 82.312 224.006C83.8015 224.953 85.3625 225.802 86.9831 226.547C88.6014 227.296 90.2747 227.942 91.9909 228.479C93.7539 229.05 95.584 229.429 97.4436 229.609Z" fill="#8B9D36"/>
<path d="M101.593 236.692C99.9813 235.488 98.2349 234.443 96.3827 233.575C94.5839 232.712 92.7282 231.953 90.8264 231.301C88.9266 230.644 86.9832 230.097 85.008 229.664C82.9886 229.201 80.9209 228.938 78.8401 228.878C80.449 230.086 82.1949 231.132 84.0479 231.999C85.8464 232.862 87.7028 233.621 89.6059 234.27C91.5071 234.923 93.4509 235.469 95.426 235.902C97.4452 236.364 99.5123 236.629 101.593 236.692Z" fill="#8B9D36"/>
<path d="M106.477 244.565C105.042 243.401 103.466 242.391 101.781 241.555C100.151 240.728 98.4625 240.003 96.7259 239.385C94.9915 238.761 93.2121 238.248 91.4005 237.849C89.5404 237.419 87.632 237.187 85.7136 237.159C87.1459 238.326 88.7213 239.337 90.4082 240.173C92.0371 241 93.7266 241.724 95.4645 242.339C97.2003 242.959 98.9801 243.471 100.792 243.872C102.652 244.3 104.559 244.533 106.477 244.565Z" fill="#8B9D36"/>
<path d="M110.337 250.625C109.087 249.635 107.7 248.8 106.212 248.142C104.788 247.495 103.311 246.952 101.793 246.518C100.277 246.08 98.7244 245.754 97.1509 245.544C95.517 245.308 93.8561 245.273 92.2119 245.438C93.4595 246.43 94.8461 247.267 96.3353 247.925C97.7587 248.573 99.2371 249.114 100.756 249.545C102.273 249.98 103.826 250.304 105.399 250.514C107.032 250.749 108.693 250.786 110.337 250.625Z" fill="#8B9D36"/>
<path d="M113.384 256.062C112.01 254.857 110.488 253.8 108.85 252.914C107.268 252.038 105.622 251.262 103.925 250.591C102.229 249.916 100.485 249.349 98.7032 248.894C96.8742 248.408 94.9894 248.118 93.0869 248.031C94.4582 249.24 95.9791 250.298 97.6187 251.184C99.2004 252.06 100.847 252.834 102.546 253.502C104.243 254.174 105.988 254.74 107.769 255.195C109.598 255.68 111.482 255.971 113.384 256.062Z" fill="#8B9D36"/>
<path d="M96.0953 226.594C96.3489 224.902 96.3032 223.184 95.96 221.505C95.658 219.922 95.1827 218.371 94.5413 216.875C93.9059 215.377 93.1048 213.943 92.1503 212.594C91.1555 211.147 89.9101 209.858 88.4629 208.776C88.2038 210.468 88.2473 212.188 88.5918 213.867C88.8932 215.45 89.3706 217 90.0166 218.494C90.6569 219.991 91.4601 221.424 92.4141 222.774C93.4093 224.219 94.6523 225.509 96.0953 226.594Z" fill="#8B9D36"/>
<path d="M117.083 258.755C117.076 258.333 116.232 216.321 107.389 203.524L107.976 203.185C116.924 216.132 117.747 257.011 117.778 258.745L117.083 258.755Z" fill="#50661A"/>
<path d="M110.558 209.024C110.282 207.128 110.213 205.211 110.349 203.302C110.465 201.442 110.691 199.589 111.026 197.751C111.35 195.92 111.791 194.108 112.31 192.311C112.828 190.502 113.482 188.761 114.181 186.907C114.379 187.367 114.529 187.844 114.629 188.33C114.741 188.807 114.823 189.29 114.874 189.775C114.982 190.729 115.029 191.687 115.015 192.645C114.984 194.53 114.795 196.411 114.45 198.27C114.113 200.123 113.638 201.952 113.026 203.746C112.421 205.584 111.593 207.354 110.558 209.024Z" fill="#50661A"/>
<path d="M99.5599 183.138C101.098 184.493 102.417 186.042 103.476 187.737C104.509 189.345 105.387 191.032 106.101 192.778C106.822 194.522 107.373 196.321 107.749 198.153C108.169 200.069 108.285 202.029 108.093 203.975C106.55 202.623 105.229 201.074 104.17 199.378C103.137 197.77 102.26 196.083 101.551 194.335C100.835 192.589 100.286 190.79 99.9098 188.957C99.4913 187.042 99.3735 185.083 99.5599 183.138Z" fill="#50661A"/>
<path d="M92.1865 193.556C94.0111 194.896 95.7342 196.347 97.3442 197.9C98.9382 199.41 100.459 200.954 101.948 202.506L106.369 207.144C107.111 207.904 107.86 208.652 108.652 209.361C109.435 210.112 110.346 210.741 111.351 211.224C110.738 211.322 110.11 211.307 109.504 211.181C108.893 211.07 108.296 210.898 107.725 210.669C106.607 210.22 105.545 209.664 104.556 209.009C102.637 207.725 100.886 206.244 99.3365 204.596C97.7952 202.98 96.4076 201.248 95.1887 199.417C93.9341 197.581 92.9261 195.613 92.1865 193.556Z" fill="#50661A"/>
<path d="M92.1865 203.975C94.4357 205.001 96.5812 206.207 98.5981 207.579C100.594 208.913 102.514 210.339 104.351 211.852C106.191 213.361 107.945 214.956 109.605 216.631C111.309 218.321 112.844 220.147 114.193 222.086C111.942 221.063 109.795 219.858 107.778 218.485C105.782 217.152 103.863 215.725 102.029 214.209C100.19 212.698 98.438 211.101 96.778 209.426C95.0748 207.736 93.5384 205.912 92.1865 203.975Z" fill="#50661A"/>
<path d="M92.9363 212.149C95.2022 213.113 97.3699 214.259 99.414 215.573C101.436 216.85 103.385 218.221 105.252 219.681C107.124 221.137 108.911 222.681 110.606 224.308C112.347 225.947 113.922 227.727 115.314 229.625C113.046 228.664 110.877 227.52 108.833 226.204C106.811 224.928 104.863 223.555 102.998 222.093C101.129 220.634 99.3428 219.089 97.6471 217.463C95.9077 215.823 94.3312 214.045 92.9363 212.149Z" fill="#50661A"/>
<path d="M93.436 220.887C95.6909 221.662 97.863 222.625 99.9246 223.764C101.96 224.866 103.929 226.067 105.824 227.362C107.722 228.652 109.543 230.036 111.277 231.506C113.059 232.989 114.685 234.62 116.136 236.379C113.879 235.607 111.706 234.645 109.644 233.505C107.609 232.403 105.64 231.201 103.748 229.903C101.851 228.61 100.032 227.226 98.2974 225.756C96.5169 224.273 94.8895 222.643 93.436 220.887Z" fill="#50661A"/>
<path d="M92.9363 227.226C95.2953 228.094 97.5669 229.148 99.7252 230.376C101.86 231.57 103.927 232.86 105.919 234.244C107.914 235.623 109.831 237.095 111.661 238.654C113.537 240.223 115.258 241.941 116.802 243.788C114.441 242.924 112.169 241.871 110.011 240.641C107.876 239.448 105.81 238.156 103.82 236.77C101.827 235.388 99.9111 233.915 98.0804 232.357C96.2055 230.787 94.4842 229.07 92.9363 227.226Z" fill="#50661A"/>
<path d="M91.1868 233.165C93.643 234.209 96.0145 235.412 98.2832 236.765C100.536 238.083 102.716 239.477 104.841 240.931C106.973 242.377 109.045 243.885 111.081 245.442C113.137 246.987 115.08 248.595 117.208 250.188C115.842 249.983 114.508 249.627 113.235 249.128C111.974 248.647 110.743 248.105 109.545 247.505C107.189 246.3 104.924 244.953 102.764 243.472C100.613 241.998 98.5558 240.412 96.6041 238.721C94.6155 237.025 92.802 235.165 91.1868 233.165Z" fill="#50661A"/>
<path d="M89.0623 239.333C91.7166 240.276 94.2921 241.395 96.7682 242.68C99.2291 243.933 101.617 245.278 103.951 246.695C106.284 248.11 108.562 249.599 110.783 251.16C111.893 251.943 112.993 252.74 114.082 253.551C115.135 254.405 116.254 255.188 117.431 255.895C116.693 255.895 115.961 255.78 115.266 255.555C114.568 255.366 113.891 255.137 113.221 254.898C111.885 254.413 110.594 253.858 109.328 253.271C106.814 252.088 104.377 250.774 102.029 249.335C99.6802 247.907 97.4127 246.371 95.2345 244.734C93.0174 243.092 90.9529 241.286 89.0623 239.333Z" fill="#50661A"/>
<path d="M112.712 216.281C112.824 214.22 113.158 212.174 113.708 210.173C114.227 208.208 114.868 206.272 115.628 204.374C116.384 202.474 117.259 200.616 118.25 198.809C119.242 196.955 120.433 195.196 121.805 193.556C121.696 195.618 121.364 197.664 120.813 199.666C120.295 201.631 119.652 203.567 118.888 205.463C118.129 207.362 117.252 209.219 116.262 211.027C115.269 212.88 114.08 214.64 112.712 216.281Z" fill="#50661A"/>
<path d="M114.193 223.413C114.619 221.363 115.261 219.356 116.111 217.419C116.925 215.515 117.857 213.654 118.901 211.845C119.939 210.034 121.091 208.279 122.35 206.588C123.616 204.852 125.066 203.233 126.678 201.755C126.257 203.806 125.616 205.815 124.765 207.751C123.951 209.656 123.018 211.516 121.971 213.323C120.929 215.133 119.776 216.887 118.518 218.578C117.251 220.313 115.802 221.933 114.193 223.413Z" fill="#50661A"/>
<path d="M115.314 230.31C116.044 228.229 116.984 226.215 118.122 224.293C119.221 222.397 120.43 220.556 121.745 218.779C123.056 216.999 124.472 215.286 125.987 213.647C127.514 211.965 129.21 210.417 131.053 209.024C130.326 211.107 129.387 213.122 128.249 215.044C127.15 216.94 125.939 218.78 124.621 220.555C123.308 222.333 121.89 224.046 120.376 225.685C118.849 227.366 117.154 228.915 115.314 230.31Z" fill="#50661A"/>
<path d="M116.136 237.919C117.281 235.67 118.625 233.51 120.155 231.461C121.649 229.423 123.243 227.46 124.938 225.573C126.626 223.68 128.413 221.861 130.297 220.115C132.189 218.336 134.239 216.703 136.426 215.233C135.286 217.485 133.942 219.646 132.41 221.694C130.916 223.732 129.321 225.694 127.625 227.58C125.932 229.469 124.144 231.287 122.262 233.034C120.369 234.813 118.32 236.446 116.136 237.919Z" fill="#50661A"/>
<path d="M116.802 245.81C118.207 243.672 119.798 241.642 121.563 239.739C123.289 237.845 125.108 236.034 127.017 234.307C128.921 232.576 130.914 230.927 132.996 229.359C135.089 227.759 137.323 226.32 139.676 225.056C138.276 227.197 136.685 229.228 134.919 231.13C133.192 233.024 131.373 234.834 129.462 236.558C127.554 238.287 125.56 239.935 123.479 241.504C121.385 243.102 119.152 244.542 116.802 245.81Z" fill="#50661A"/>
<path d="M117.208 250.869C118.766 249.025 120.496 247.307 122.38 245.737C124.219 244.179 126.144 242.705 128.145 241.323C130.143 239.937 132.218 238.645 134.36 237.453C136.526 236.224 138.807 235.171 141.175 234.308C139.621 236.155 137.891 237.873 136.007 239.443C134.167 241.002 132.242 242.474 130.238 243.853C128.238 245.237 126.163 246.528 124.02 247.72C121.854 248.949 119.575 250.003 117.208 250.869Z" fill="#50661A"/>
<path d="M117.431 255.095C119.299 253.412 121.32 251.876 123.472 250.504C125.585 249.131 127.762 247.862 130.003 246.694C132.241 245.521 134.542 244.449 136.905 243.476C139.289 242.474 141.763 241.662 144.3 241.046C142.434 242.733 140.413 244.27 138.26 245.641C136.147 247.014 133.97 248.283 131.727 249.447C129.487 250.617 127.186 251.688 124.823 252.662C122.439 253.663 119.966 254.477 117.431 255.095Z" fill="#50661A"/>
<path d="M117.258 257.837C119.5 256.423 121.864 255.178 124.327 254.115C126.752 253.045 129.225 252.092 131.738 251.238C134.25 250.384 136.807 249.638 139.408 249C142.033 248.337 144.715 247.873 147.424 247.614C145.185 249.032 142.821 250.278 140.357 251.339C137.931 252.409 135.46 253.367 132.944 254.212C130.43 255.062 127.875 255.813 125.273 256.446C122.647 257.108 119.966 257.573 117.258 257.837Z" fill="#50661A"/>
<path d="M118.508 257.719L117.913 257.391C118.08 257.137 134.672 231.865 137.256 225.569L137.906 225.792C135.3 232.142 119.192 256.677 118.508 257.719Z" fill="#5E7C24"/>
<path d="M131.957 212.317C132.659 213.905 133.196 215.55 133.561 217.23C133.934 218.875 134.207 220.538 134.381 222.211C134.559 223.884 134.634 225.564 134.606 227.244C134.596 228.957 134.406 230.666 134.04 232.346C133.335 230.759 132.796 229.114 132.433 227.433C132.059 225.788 131.787 224.124 131.617 222.451C131.442 220.779 131.368 219.098 131.395 217.418C131.406 215.705 131.595 213.997 131.957 212.317Z" fill="#5E7C24"/>
<path d="M125.833 219.969C126.689 221.449 127.386 223 127.915 224.602C128.448 226.167 128.885 227.759 129.222 229.37C129.564 230.98 129.805 232.606 129.944 234.241C130.102 235.908 130.082 237.585 129.884 239.249C129.026 237.771 128.328 236.219 127.799 234.617C127.266 233.052 126.83 231.459 126.495 229.848C126.156 228.238 125.917 226.612 125.777 224.977C125.62 223.31 125.639 221.633 125.833 219.969Z" fill="#5E7C24"/>
<path d="M122.459 228.878C123.212 230.253 123.806 231.696 124.231 233.184C124.66 234.633 124.991 236.105 125.222 237.592C125.458 239.077 125.592 240.575 125.623 242.076C125.672 243.613 125.542 245.151 125.237 246.663C124.48 245.29 123.885 243.846 123.461 242.358C123.032 240.909 122.702 239.437 122.474 237.95C122.241 236.464 122.108 234.966 122.076 233.465C122.029 231.928 122.157 230.391 122.459 228.878Z" fill="#5E7C24"/>
<path d="M118.21 237.771C118.966 238.923 119.569 240.153 120.007 241.435C120.444 242.674 120.785 243.939 121.026 245.222C121.272 246.504 121.417 247.8 121.459 249.101C121.518 250.444 121.4 251.788 121.107 253.105C120.348 251.954 119.743 250.724 119.307 249.441C118.869 248.202 118.529 246.937 118.291 245.654C118.048 244.371 117.904 243.074 117.862 241.773C117.804 240.431 117.92 239.088 118.21 237.771Z" fill="#5E7C24"/>
<path d="M114.461 243.329C115.232 244.328 115.869 245.408 116.358 246.546C116.836 247.633 117.234 248.748 117.55 249.884C117.862 251.011 118.103 252.154 118.27 253.307C118.348 253.887 118.419 254.465 118.467 255.054C118.491 255.654 118.561 256.252 118.676 256.843C118.516 256.765 118.362 256.676 118.215 256.577L117.841 256.235C117.602 256.001 117.384 255.75 117.186 255.486C116.806 254.977 116.47 254.442 116.18 253.885C115.617 252.803 115.174 251.672 114.859 250.509C114.538 249.357 114.33 248.181 114.237 246.994C114.125 245.769 114.201 244.535 114.461 243.329Z" fill="#5E7C24"/>
<path d="M135.598 229.609C136.858 228.346 138.276 227.223 139.822 226.261C141.312 225.315 142.872 224.465 144.491 223.717C146.108 222.964 147.781 222.317 149.497 221.78C151.26 221.209 153.091 220.831 154.952 220.655C153.694 221.92 152.277 223.045 150.73 224.006C149.24 224.953 147.679 225.802 146.059 226.547C144.441 227.296 142.767 227.942 141.051 228.479C139.288 229.05 137.458 229.429 135.598 229.609Z" fill="#5E7C24"/>
<path d="M131.449 236.692C133.06 235.488 134.807 234.443 136.659 233.575C138.458 232.712 140.314 231.953 142.215 231.301C144.115 230.644 146.058 230.097 148.034 229.664C150.053 229.201 152.121 228.938 154.202 228.878C152.593 230.086 150.847 231.132 148.994 231.999C147.195 232.862 145.339 233.621 143.436 234.27C141.535 234.923 139.591 235.469 137.616 235.902C135.597 236.364 133.529 236.629 131.449 236.692Z" fill="#5E7C24"/>
<path d="M126.565 244.565C128 243.401 129.575 242.391 131.261 241.555C132.891 240.728 134.58 240.003 136.316 239.385C138.05 238.761 139.83 238.248 141.641 237.849C143.502 237.419 145.41 237.187 147.328 237.159C145.896 238.326 144.321 239.337 142.634 240.173C141.005 241 139.315 241.724 137.577 242.339C135.842 242.959 134.062 243.471 132.25 243.872C130.39 244.3 128.483 244.533 126.565 244.565Z" fill="#5E7C24"/>
<path d="M122.705 250.625C123.955 249.635 125.342 248.8 126.83 248.142C128.254 247.495 129.731 246.952 131.249 246.518C132.765 246.08 134.317 245.754 135.891 245.544C137.525 245.308 139.186 245.273 140.83 245.438C139.582 246.43 138.196 247.267 136.707 247.925C135.283 248.573 133.805 249.114 132.286 249.545C130.769 249.98 129.216 250.304 127.643 250.514C126.009 250.749 124.349 250.786 122.705 250.625Z" fill="#5E7C24"/>
<path d="M119.658 256.062C121.032 254.857 122.554 253.8 124.192 252.914C125.774 252.038 127.42 251.262 129.117 250.591C130.813 249.916 132.557 249.349 134.339 248.894C136.168 248.408 138.053 248.118 139.955 248.031C138.584 249.24 137.063 250.298 135.423 251.184C133.842 252.06 132.195 252.834 130.496 253.502C128.799 254.174 127.054 254.74 125.273 255.195C123.444 255.68 121.56 255.971 119.658 256.062Z" fill="#5E7C24"/>
<path d="M136.947 226.594C136.693 224.902 136.739 223.184 137.082 221.505C137.384 219.922 137.859 218.371 138.501 216.875C139.136 215.377 139.937 213.943 140.892 212.594C141.886 211.147 143.132 209.858 144.579 208.776C144.838 210.468 144.795 212.188 144.45 213.867C144.149 215.45 143.671 217 143.025 218.494C142.385 219.991 141.582 221.424 140.628 222.774C139.633 224.219 138.39 225.509 136.947 226.594Z" fill="#5E7C24"/>
<path d="M122.409 275.599H109.862L105.826 256.027C105.802 255.915 105.806 255.8 105.836 255.689C105.867 255.578 105.924 255.475 106.003 255.386C106.083 255.298 106.182 255.227 106.295 255.177C106.408 255.128 106.531 255.102 106.656 255.102H125.615C125.74 255.102 125.863 255.128 125.976 255.177C126.089 255.227 126.189 255.298 126.268 255.386C126.347 255.475 126.404 255.578 126.435 255.689C126.466 255.8 126.469 255.915 126.445 256.027L122.409 275.599Z" fill="#E19974"/>
<path d="M126.154 257.442L126.445 256.027C126.469 255.915 126.466 255.8 126.435 255.689C126.404 255.578 126.347 255.475 126.268 255.386C126.189 255.298 126.089 255.227 125.976 255.177C125.863 255.128 125.74 255.102 125.615 255.102H106.656C106.531 255.102 106.408 255.128 106.295 255.177C106.182 255.227 106.083 255.298 106.003 255.386C105.924 255.475 105.867 255.578 105.836 255.689C105.806 255.8 105.802 255.915 105.826 256.027L106.117 257.442H126.154Z" fill="#D6694B"/>
<path d="M110.865 270.056L108.215 267.611L110.865 265.166L113.516 267.611L110.865 270.056Z" fill="#D6694B"/>
<path d="M116.166 270.056L113.516 267.611L116.166 265.166L118.816 267.611L116.166 270.056Z" fill="#D6694B"/>
<path d="M121.405 270.056L118.755 267.611L121.405 265.166L124.056 267.611L121.405 270.056Z" fill="#D6694B"/>
<path d="M132.064 72.7662H79.4789C78.712 72.7662 78.0903 73.3344 78.0903 74.0353V168.126C78.0903 168.827 78.712 169.395 79.4789 169.395H132.064C132.831 169.395 133.453 168.827 133.453 168.126V74.0353C133.453 73.3344 132.831 72.7662 132.064 72.7662Z" fill="#A2AEE6"/>
<path d="M103.071 75.1648H82.1032C81.3363 75.1648 80.7146 75.733 80.7146 76.4339V102.907C80.7146 103.608 81.3363 104.176 82.1032 104.176H103.071C103.837 104.176 104.459 103.608 104.459 102.907V76.4339C104.459 75.733 103.837 75.1648 103.071 75.1648Z" fill="#E5E1E5"/>
<path d="M129.44 75.1648H108.472C107.705 75.1648 107.084 75.733 107.084 76.4339V102.907C107.084 103.608 107.705 104.176 108.472 104.176H129.44C130.207 104.176 130.828 103.608 130.828 102.907V76.4339C130.828 75.733 130.207 75.1648 129.44 75.1648Z" fill="#E5E1E5"/>
<path d="M103.071 106.575H82.1032C81.3363 106.575 80.7146 107.143 80.7146 107.844V134.317C80.7146 135.018 81.3363 135.586 82.1032 135.586H103.071C103.837 135.586 104.459 135.018 104.459 134.317V107.844C104.459 107.143 103.837 106.575 103.071 106.575Z" fill="#E5E1E5"/>
<path d="M129.44 106.575H108.472C107.705 106.575 107.084 107.143 107.084 107.844V134.317C107.084 135.018 107.705 135.586 108.472 135.586H129.44C130.207 135.586 130.828 135.018 130.828 134.317V107.844C130.828 107.143 130.207 106.575 129.44 106.575Z" fill="#E5E1E5"/>
<path d="M103.071 137.985H82.1032C81.3363 137.985 80.7146 138.553 80.7146 139.254V165.727C80.7146 166.428 81.3363 166.996 82.1032 166.996H103.071C103.837 166.996 104.459 166.428 104.459 165.727V139.254C104.459 138.553 103.837 137.985 103.071 137.985Z" fill="#E5E1E5"/>
<path d="M129.44 137.985H108.472C107.705 137.985 107.084 138.553 107.084 139.254V165.727C107.084 166.428 107.705 166.996 108.472 166.996H129.44C130.207 166.996 130.828 166.428 130.828 165.727V139.254C130.828 138.553 130.207 137.985 129.44 137.985Z" fill="#E5E1E5"/>
<path d="M83.2766 98.1987C84.4509 96.4482 85.6875 94.7377 86.9335 93.0332C88.1729 91.3246 89.457 89.6447 90.7412 87.9649C92.0389 86.2938 93.3378 84.6235 94.6806 82.9814L96.6969 80.5196C97.3898 79.7123 98.0631 78.8925 98.7731 78.0964C98.1917 78.9754 97.5737 79.8308 96.9752 80.6988L95.1173 83.2625C93.8774 84.9709 92.5936 86.6509 91.3085 88.3302C90.01 90.0008 88.7112 91.6713 87.3681 93.3131C86.0312 94.959 84.685 96.5989 83.2766 98.1987Z" fill="#A2AEE6"/>
<path d="M86.4255 102.212C87.5999 100.462 88.8364 98.7512 90.0822 97.0468C91.3218 95.3382 92.6058 93.6582 93.8901 91.9785C95.1878 90.3074 96.4867 88.637 97.8295 86.9949L99.8458 84.5331C100.539 83.7259 101.212 82.9061 101.922 82.1099C101.341 82.9889 100.722 83.8443 100.124 84.7123L98.2662 87.2761C97.0261 88.9844 95.7423 90.6645 94.4573 92.3437C93.1589 94.0143 91.8602 95.6848 90.5168 97.3266C89.1801 98.9726 87.8339 100.612 86.4255 102.212Z" fill="#A2AEE6"/>
<path d="M109.633 98.1987C110.808 96.4482 112.044 94.7377 113.29 93.0332C114.53 91.3246 115.814 89.6447 117.098 87.9649C118.396 86.2938 119.695 84.6235 121.037 82.9814L123.054 80.5196C123.746 79.7123 124.42 78.8925 125.13 78.0964C124.548 78.9754 123.93 79.8308 123.332 80.6988L121.474 83.2625C120.234 84.9709 118.95 86.6509 117.665 88.3302C116.367 90.0008 115.068 91.6713 113.725 93.3131C112.388 94.959 111.042 96.5989 109.633 98.1987Z" fill="#A2AEE6"/>
<path d="M112.782 102.212C113.957 100.462 115.193 98.7512 116.439 97.0468C117.678 95.3382 118.963 93.6582 120.247 91.9785C121.545 90.3074 122.843 88.637 124.186 86.9949L126.202 84.5331C126.895 83.7259 127.569 82.9061 128.279 82.1099C127.697 82.9889 127.079 83.8443 126.481 84.7123L124.623 87.2761C123.383 88.9844 122.099 90.6645 120.814 92.3437C119.516 94.0143 118.217 95.6848 116.874 97.3266C115.537 98.9726 114.191 100.612 112.782 102.212Z" fill="#A2AEE6"/>
<path d="M83.2766 128.49C84.4509 126.74 85.6875 125.029 86.9335 123.325C88.1729 121.616 89.457 119.936 90.7412 118.257C92.0389 116.585 93.3378 114.915 94.6806 113.273L96.6969 110.811C97.3898 110.004 98.0631 109.184 98.7731 108.388C98.1917 109.267 97.5737 110.122 96.9752 110.99L95.1173 113.554C93.8774 115.262 92.5936 116.942 91.3085 118.622C90.01 120.292 88.7112 121.963 87.3681 123.605C86.0312 125.251 84.685 126.891 83.2766 128.49Z" fill="#A2AEE6"/>
<path d="M86.4255 132.504C87.5999 130.753 88.8364 129.043 90.0822 127.338C91.3218 125.63 92.6058 123.95 93.8901 122.27C95.1878 120.599 96.4867 118.929 97.8295 117.287L99.8458 114.825C100.539 114.017 101.212 113.198 101.922 112.401C101.341 113.28 100.722 114.136 100.124 115.004L98.2662 117.568C97.0261 119.276 95.7423 120.956 94.4573 122.635C93.1589 124.306 91.8602 125.976 90.5168 127.618C89.1801 129.264 87.8339 130.904 86.4255 132.504Z" fill="#A2AEE6"/>
<path d="M109.633 128.49C110.808 126.74 112.044 125.029 113.29 123.325C114.53 121.616 115.814 119.936 117.098 118.257C118.396 116.585 119.695 114.915 121.037 113.273L123.054 110.811C123.746 110.004 124.42 109.184 125.13 108.388C124.548 109.267 123.93 110.122 123.332 110.99L121.474 113.554C120.234 115.262 118.95 116.942 117.665 118.622C116.367 120.292 115.068 121.963 113.725 123.605C112.388 125.251 111.042 126.891 109.633 128.49Z" fill="#A2AEE6"/>
<path d="M112.782 132.504C113.957 130.753 115.193 129.043 116.439 127.338C117.678 125.63 118.963 123.95 120.247 122.27C121.545 120.599 122.843 118.929 124.186 117.287L126.202 114.825C126.895 114.017 127.569 113.198 128.279 112.401C127.697 113.28 127.079 114.136 126.481 115.004L124.623 117.568C123.383 119.276 122.099 120.956 120.814 122.635C119.516 124.306 118.217 125.976 116.874 127.618C115.537 129.264 114.191 130.904 112.782 132.504Z" fill="#A2AEE6"/>
<path d="M83.2766 159.862C84.4509 158.111 85.6875 156.401 86.9335 154.697C88.1729 152.988 89.457 151.308 90.7412 149.628C92.0389 147.957 93.3378 146.287 94.6806 144.645L96.6969 142.183C97.3898 141.376 98.0631 140.556 98.7731 139.76C98.1917 140.639 97.5737 141.494 96.9752 142.362L95.1173 144.926C93.8774 146.634 92.5936 148.314 91.3085 149.994C90.01 151.664 88.7112 153.335 87.3681 154.976C86.0312 156.622 84.685 158.262 83.2766 159.862Z" fill="#A2AEE6"/>
<path d="M86.4255 163.876C87.5999 162.125 88.8364 160.414 90.0822 158.71C91.3218 157.001 92.6058 155.322 93.8901 153.642C95.1878 151.971 96.4867 150.3 97.8295 148.658L99.8458 146.196C100.539 145.389 101.212 144.569 101.922 143.773C101.341 144.652 100.722 145.508 100.124 146.376L98.2662 148.939C97.0261 150.648 95.7423 152.328 94.4573 154.007C93.1589 155.678 91.8602 157.348 90.5168 158.99C89.1801 160.636 87.8339 162.276 86.4255 163.876Z" fill="#A2AEE6"/>
<path d="M109.633 159.862C110.808 158.111 112.044 156.401 113.29 154.697C114.53 152.988 115.814 151.308 117.098 149.628C118.396 147.957 119.695 146.287 121.037 144.645L123.054 142.183C123.746 141.376 124.42 140.556 125.13 139.76C124.548 140.639 123.93 141.494 123.332 142.362L121.474 144.926C120.234 146.634 118.95 148.314 117.665 149.994C116.367 151.664 115.068 153.335 113.725 154.976C112.388 156.622 111.042 158.262 109.633 159.862Z" fill="#A2AEE6"/>
<path d="M112.782 163.876C113.957 162.125 115.193 160.414 116.439 158.71C117.678 157.001 118.963 155.322 120.247 153.642C121.545 151.971 122.843 150.3 124.186 148.658L126.202 146.196C126.895 145.389 127.569 144.569 128.279 143.773C127.697 144.652 127.079 145.508 126.481 146.376L124.623 148.939C123.383 150.648 122.099 152.328 120.814 154.007C119.516 155.678 118.217 157.348 116.874 158.99C115.537 160.636 114.191 162.276 112.782 163.876Z" fill="#A2AEE6"/>
<path d="M398.169 83.5853H313.714V242.868H398.169V83.5853Z" fill="#935B50"/>
<path d="M341.622 158.766H326.499V145.34C326.499 143.507 327.295 141.749 328.713 140.453C330.132 139.157 332.055 138.429 334.06 138.429C335.053 138.429 336.036 138.608 336.954 138.955C337.871 139.303 338.705 139.812 339.407 140.453C340.109 141.095 340.666 141.857 341.046 142.695C341.426 143.534 341.622 144.433 341.622 145.34V158.766Z" fill="#FFBA55"/>
<path d="M334.325 150.842C337.451 150.842 339.984 148.527 339.984 145.67C339.984 142.814 337.451 140.498 334.325 140.498C331.2 140.498 328.666 142.814 328.666 145.67C328.666 148.527 331.2 150.842 334.325 150.842Z" fill="white"/>
<path d="M335.939 141.599C335.552 143.006 335.029 144.368 334.512 145.732L334.429 145.515C335.824 146.315 337.224 147.107 338.539 148.025C337.046 147.373 335.636 146.596 334.221 145.825L334.08 145.748L334.138 145.608C334.697 144.258 335.249 142.906 335.939 141.599Z" fill="#080200"/>
<path d="M340.208 240.028V240.295C340.208 240.978 339.912 241.632 339.384 242.114C338.856 242.596 338.14 242.867 337.394 242.868H328.94C328.193 242.867 327.478 242.596 326.95 242.114C326.422 241.632 326.126 240.978 326.125 240.295V229.883C326.126 229.201 326.422 228.547 326.95 228.064C327.478 227.582 328.193 227.311 328.94 227.311H337.394C338.14 227.311 338.856 227.582 339.384 228.064C339.912 228.547 340.208 229.201 340.208 229.883V240.028Z" fill="#FFBA55"/>
<path d="M344.869 229.965H340.208V231.509H344.025V238.484H340.209V240.028H344.869C344.98 240.028 345.09 240.008 345.192 239.969C345.295 239.931 345.388 239.874 345.466 239.802C345.545 239.73 345.607 239.645 345.649 239.552C345.692 239.458 345.714 239.358 345.713 239.256V230.737C345.714 230.635 345.692 230.535 345.649 230.441C345.607 230.348 345.545 230.263 345.466 230.191C345.388 230.119 345.295 230.062 345.192 230.024C345.09 229.985 344.98 229.965 344.869 229.965Z" fill="white"/>
<path d="M336.102 232.637H333.73C333.419 232.637 333.167 232.867 333.167 233.151V235.319C333.167 235.603 333.419 235.833 333.73 235.833H336.102C336.413 235.833 336.665 235.603 336.665 235.319V233.151C336.665 232.867 336.413 232.637 336.102 232.637Z" fill="white"/>
<path d="M335.312 227.31H334.52V232.637H335.312V227.31Z" fill="#E5CAF3"/>
<path d="M309.527 79.5696V275.599H313.714V270.769H398.169V275.599H402.355V79.5696H309.527ZM313.714 83.5853H354.75V122.89H313.714V83.5853ZM313.714 126.034H354.75V158.766H313.714V126.034ZM313.714 162.175H354.75V199.68H313.714V162.175ZM313.714 203.09H354.75V242.868H313.714V203.09ZM398.169 267.53H313.714V246.959H398.169V267.53ZM398.169 242.868H357.361V203.09H398.169V242.868ZM398.169 199.68H357.361V162.175H398.169V199.68ZM398.169 158.766H357.361V126.034H398.169V158.766ZM398.169 122.89H357.361V83.5853H398.169V122.89Z" fill="#E19974"/>
<path d="M398.169 246.012H313.714V267.53H398.169V246.012Z" fill="#935B50"/>
<path d="M338.439 255.938H324.076V258.552H338.439V255.938Z" fill="#E19974"/>
<path d="M387.806 255.938H373.444V258.552H387.806V255.938Z" fill="#E19974"/>
<path d="M367.095 119.002H392.575V122.475H367.095C366.648 122.475 366.219 122.313 365.903 122.024C365.587 121.735 365.409 121.343 365.409 120.935V120.542C365.409 120.134 365.587 119.742 365.903 119.453C366.219 119.164 366.648 119.002 367.095 119.002Z" fill="white"/>
<path d="M393.37 122.564C393.367 122.65 393.327 122.731 393.258 122.79C393.19 122.849 393.098 122.881 393.004 122.879H366.612C365.605 122.879 364.785 121.927 364.785 120.756C364.785 119.586 365.605 118.634 366.612 118.634H393.004C393.098 118.631 393.19 118.663 393.258 118.722C393.327 118.781 393.367 118.862 393.37 118.948V119.196C393.367 119.282 393.327 119.364 393.258 119.423C393.19 119.482 393.098 119.513 393.004 119.511H366.612C366.307 119.578 366.035 119.738 365.84 119.964C365.646 120.19 365.54 120.469 365.54 120.756C365.54 121.044 365.646 121.323 365.84 121.549C366.035 121.774 366.307 121.934 366.612 122.002H393.004C393.098 121.999 393.19 122.031 393.258 122.09C393.327 122.149 393.367 122.23 393.37 122.316V122.564Z" fill="#F65B2B"/>
<path d="M363.127 114.757H388.608V118.23H363.127C362.68 118.23 362.252 118.068 361.936 117.779C361.62 117.49 361.442 117.098 361.442 116.69V116.298C361.442 115.889 361.62 115.497 361.936 115.209C362.252 114.92 362.68 114.757 363.127 114.757Z" fill="white"/>
<path d="M389.403 118.319C389.4 118.405 389.36 118.487 389.291 118.546C389.222 118.605 389.131 118.636 389.037 118.634H362.645C361.637 118.634 360.818 117.682 360.818 116.511C360.818 115.341 361.637 114.389 362.645 114.389H389.037C389.131 114.387 389.222 114.418 389.291 114.477C389.36 114.536 389.4 114.618 389.403 114.704V114.951C389.4 115.037 389.36 115.119 389.291 115.178C389.222 115.237 389.131 115.269 389.037 115.266H362.645C362.339 115.334 362.068 115.493 361.873 115.719C361.679 115.945 361.573 116.224 361.573 116.511C361.573 116.799 361.679 117.078 361.873 117.304C362.068 117.53 362.339 117.689 362.645 117.757H389.037C389.131 117.754 389.222 117.786 389.291 117.845C389.36 117.904 389.4 117.985 389.403 118.071V118.319Z" fill="#FFBA55"/>
<path d="M371.248 110.513H396.728V113.986H371.248C370.801 113.986 370.373 113.823 370.057 113.534C369.741 113.246 369.563 112.854 369.563 112.445V112.053C369.563 111.851 369.607 111.65 369.691 111.463C369.776 111.277 369.9 111.107 370.057 110.964C370.213 110.821 370.399 110.707 370.603 110.63C370.808 110.552 371.027 110.513 371.248 110.513Z" fill="white"/>
<path d="M397.524 114.074C397.521 114.16 397.481 114.242 397.412 114.301C397.343 114.36 397.252 114.392 397.158 114.389H370.766C369.759 114.389 368.939 113.437 368.939 112.267C368.939 111.096 369.759 110.144 370.766 110.144H397.158C397.252 110.142 397.343 110.173 397.412 110.232C397.481 110.291 397.521 110.373 397.524 110.459V110.707C397.521 110.793 397.481 110.874 397.412 110.933C397.343 110.992 397.252 111.024 397.158 111.021H370.766C370.461 111.089 370.189 111.248 369.994 111.474C369.8 111.7 369.694 111.979 369.694 112.267C369.694 112.554 369.8 112.833 369.994 113.059C370.189 113.285 370.461 113.445 370.766 113.512H397.158C397.252 113.51 397.343 113.541 397.412 113.6C397.481 113.659 397.521 113.741 397.524 113.827V114.074Z" fill="#F65B2B"/>
<path d="M388.633 199.277H363.153V195.804H388.633C389.08 195.804 389.509 195.966 389.825 196.255C390.141 196.544 390.319 196.935 390.319 197.344V197.736C390.319 198.145 390.141 198.537 389.825 198.825C389.509 199.114 389.08 199.277 388.633 199.277Z" fill="white"/>
<path d="M362.358 199.365C362.361 199.451 362.401 199.533 362.47 199.592C362.538 199.651 362.63 199.683 362.724 199.68H389.115C390.123 199.68 390.943 198.728 390.943 197.558C390.943 196.387 390.123 195.435 389.115 195.435H362.724C362.63 195.433 362.538 195.465 362.47 195.524C362.401 195.583 362.361 195.664 362.358 195.75V195.998C362.361 196.084 362.401 196.165 362.47 196.224C362.538 196.283 362.63 196.315 362.724 196.312H389.115C389.421 196.38 389.693 196.539 389.887 196.765C390.082 196.991 390.188 197.27 390.188 197.558C390.188 197.845 390.082 198.124 389.887 198.35C389.693 198.576 389.421 198.736 389.115 198.803H362.724C362.63 198.801 362.538 198.832 362.47 198.891C362.401 198.95 362.361 199.032 362.358 199.118V199.365Z" fill="#F65B2B"/>
<path d="M392.601 195.032H367.121V191.559H392.601C392.822 191.559 393.041 191.599 393.246 191.676C393.45 191.754 393.636 191.867 393.792 192.01C393.949 192.153 394.073 192.323 394.158 192.51C394.242 192.697 394.286 192.897 394.286 193.099V193.492C394.286 193.9 394.108 194.292 393.792 194.581C393.476 194.87 393.048 195.032 392.601 195.032Z" fill="white"/>
<path d="M366.325 195.121C366.328 195.207 366.368 195.288 366.437 195.347C366.505 195.406 366.597 195.438 366.691 195.435H393.083C394.09 195.435 394.91 194.483 394.91 193.313C394.91 192.143 394.09 191.191 393.083 191.191H366.691C366.597 191.188 366.505 191.22 366.437 191.279C366.368 191.338 366.328 191.419 366.325 191.505V191.753C366.328 191.839 366.368 191.92 366.437 191.979C366.505 192.038 366.597 192.07 366.691 192.068H393.083C393.388 192.135 393.66 192.295 393.855 192.521C394.049 192.746 394.155 193.026 394.155 193.313C394.155 193.6 394.049 193.88 393.855 194.105C393.66 194.331 393.388 194.491 393.083 194.558H366.691C366.597 194.556 366.505 194.588 366.437 194.647C366.368 194.706 366.328 194.787 366.325 194.873V195.121Z" fill="#FFBA55"/>
<path d="M384.48 190.787H359V187.314H384.48C384.927 187.314 385.355 187.476 385.671 187.765C385.987 188.054 386.165 188.446 386.165 188.854V189.247C386.165 189.655 385.987 190.047 385.671 190.336C385.355 190.625 384.927 190.787 384.48 190.787Z" fill="white"/>
<path d="M358.204 190.876C358.207 190.962 358.247 191.043 358.316 191.102C358.385 191.161 358.476 191.193 358.57 191.191H384.962C385.969 191.191 386.789 190.239 386.789 189.068C386.789 187.898 385.969 186.946 384.962 186.946H358.57C358.476 186.943 358.385 186.975 358.316 187.034C358.247 187.093 358.207 187.174 358.204 187.26V187.508C358.207 187.594 358.247 187.676 358.316 187.735C358.385 187.794 358.476 187.825 358.57 187.823H384.962C385.267 187.89 385.539 188.05 385.734 188.276C385.928 188.502 386.034 188.781 386.034 189.068C386.034 189.356 385.928 189.635 385.734 189.861C385.539 190.087 385.267 190.246 384.962 190.314H358.57C358.476 190.311 358.385 190.343 358.316 190.402C358.247 190.461 358.207 190.542 358.204 190.628V190.876Z" fill="#F65B2B"/>
<path d="M354.359 96.5224L350.428 122.889L345.892 122.324L349.823 95.9574C349.831 95.9008 349.852 95.8463 349.883 95.797C349.915 95.7476 349.957 95.7045 350.006 95.6699C350.056 95.6353 350.113 95.6101 350.173 95.5955C350.234 95.581 350.297 95.5775 350.359 95.5852L353.952 96.0327C354.077 96.0483 354.19 96.1086 354.266 96.2004C354.343 96.2923 354.376 96.4081 354.359 96.5224Z" fill="#7CA1B1"/>
<path d="M349.619 97.3189L349.544 97.8202L354.08 98.3853L354.155 97.884L349.619 97.3189Z" fill="white"/>
<path d="M349.32 99.3222L349.246 99.8235L353.782 100.389L353.857 99.8873L349.32 99.3222Z" fill="white"/>
<path d="M346.633 117.348L346.558 117.849L351.095 118.414L351.169 117.913L346.633 117.348Z" fill="white"/>
<path d="M346.335 119.35L346.26 119.851L350.795 120.416L350.87 119.915L346.335 119.35Z" fill="white"/>
<path d="M339.729 96.2793V122.89H335.151V96.2793C335.151 96.2222 335.163 96.1656 335.187 96.1128C335.211 96.0601 335.246 96.0121 335.29 95.9717C335.334 95.9314 335.387 95.8993 335.444 95.8775C335.502 95.8556 335.564 95.8444 335.626 95.8444H339.253C339.315 95.8444 339.377 95.8556 339.435 95.8775C339.493 95.8993 339.545 95.9314 339.589 95.9718C339.634 96.0121 339.669 96.0601 339.693 96.1128C339.716 96.1656 339.729 96.2222 339.729 96.2793Z" fill="#F65B2B"/>
<path d="M339.729 120.575H335.151V121.08H339.729V120.575Z" fill="white"/>
<path d="M339.729 118.554H335.151V119.059H339.729V118.554Z" fill="white"/>
<path d="M339.729 100.362H335.151V100.867H339.729V100.362Z" fill="white"/>
<path d="M339.729 98.3407H335.151V98.8458H339.729V98.3407Z" fill="white"/>
<path d="M339.723 122.89V97.4921C339.723 97.3768 339.774 97.2661 339.863 97.1846C339.952 97.103 340.073 97.0572 340.199 97.0572H345.418C345.48 97.0572 345.542 97.0684 345.6 97.0903C345.658 97.1121 345.71 97.1442 345.754 97.1846C345.799 97.225 345.834 97.2729 345.858 97.3257C345.882 97.3784 345.894 97.435 345.894 97.4921V122.89H339.723Z" fill="#FFBA55"/>
<path d="M345.893 119.711H339.723V120.217H345.893V119.711Z" fill="white"/>
<path d="M344.799 110.58V98.5126H340.818V110.58H344.799Z" fill="white"/>
<path d="M324.411 96.2793V122.89H328.989V96.2793C328.989 96.1639 328.939 96.0533 328.849 95.9717C328.76 95.8902 328.639 95.8444 328.513 95.8444H324.887C324.824 95.8444 324.762 95.8556 324.704 95.8775C324.647 95.8993 324.594 95.9314 324.55 95.9717C324.506 96.0121 324.471 96.0601 324.447 96.1128C324.423 96.1656 324.411 96.2222 324.411 96.2793Z" fill="#FFBA55"/>
<path d="M328.989 120.575H324.41V121.08H328.989V120.575Z" fill="white"/>
<path d="M328.989 118.554H324.41V119.059H328.989V118.554Z" fill="white"/>
<path d="M328.989 100.362H324.41V100.867H328.989V100.362Z" fill="white"/>
<path d="M328.989 98.3407H324.41V98.8458H328.989V98.3407Z" fill="white"/>
<path d="M324.416 122.89V97.4921C324.416 97.435 324.404 97.3784 324.38 97.3257C324.356 97.2729 324.321 97.225 324.277 97.1846C324.233 97.1442 324.18 97.1121 324.123 97.0903C324.065 97.0684 324.003 97.0572 323.94 97.0572H318.722C318.659 97.0572 318.597 97.0684 318.54 97.0903C318.482 97.1121 318.429 97.1442 318.385 97.1846C318.341 97.225 318.306 97.2729 318.282 97.3257C318.258 97.3784 318.246 97.435 318.246 97.4921V122.89H324.416Z" fill="#F65B2B"/>
<path d="M324.416 119.711H318.246V120.217H324.416V119.711Z" fill="white"/>
<path d="M323.322 110.58V98.5126H319.341V110.58H323.322Z" fill="white"/>
<path d="M335.155 97.4921V122.89H328.985V97.4921C328.985 97.3767 329.035 97.2661 329.124 97.1846C329.213 97.103 329.334 97.0572 329.46 97.0572H334.679C334.805 97.0572 334.926 97.103 335.016 97.1846C335.105 97.2661 335.155 97.3767 335.155 97.4921Z" fill="#7CA1B1"/>
<path d="M335.155 119.712H328.984V120.217H335.155V119.712Z" fill="white"/>
<path d="M334.06 110.58V98.5126H330.079V110.58H334.06Z" fill="white"/>
<path d="M360.535 168.102L363.283 186.532L360.112 186.927L357.364 168.497C357.352 168.417 357.376 168.336 357.429 168.272C357.482 168.207 357.561 168.165 357.649 168.154L360.16 167.841C360.248 167.831 360.336 167.852 360.407 167.901C360.477 167.949 360.523 168.022 360.535 168.102Z" fill="#7CA1B1"/>
<path d="M357.559 169.799L357.506 169.449L360.677 169.054L360.729 169.403L357.559 169.799Z" fill="white"/>
<path d="M357.768 171.198L357.715 170.848L360.886 170.453L360.938 170.803L357.768 171.198Z" fill="white"/>
<path d="M359.646 183.798L359.593 183.448L362.764 183.053L362.816 183.403L359.646 183.798Z" fill="white"/>
<path d="M359.855 185.198L359.802 184.848L362.973 184.453L363.025 184.803L359.855 185.198Z" fill="white"/>
<path d="M367.59 168.326V186.927H370.79V168.326C370.79 168.246 370.755 168.168 370.693 168.111C370.63 168.054 370.546 168.022 370.458 168.022H367.923C367.834 168.022 367.75 168.054 367.688 168.111C367.625 168.168 367.59 168.246 367.59 168.326Z" fill="#F65B2B"/>
<path d="M370.79 185.309H367.59V185.662H370.79V185.309Z" fill="white"/>
<path d="M370.79 183.896H367.59V184.249H370.79V183.896Z" fill="white"/>
<path d="M370.79 171.18H367.59V171.533H370.79V171.18Z" fill="white"/>
<path d="M370.79 169.767H367.59V170.12H370.79V169.767Z" fill="white"/>
<path d="M367.594 186.927V169.174C367.594 169.093 367.559 169.016 367.496 168.959C367.434 168.902 367.349 168.87 367.261 168.87H363.613C363.525 168.87 363.441 168.902 363.378 168.959C363.316 169.016 363.281 169.093 363.281 169.174V186.927H367.594Z" fill="#FFBA55"/>
<path d="M367.594 184.705H363.281V185.058H367.594V184.705Z" fill="white"/>
<path d="M366.829 178.322V169.887H364.046V178.322H366.829Z" fill="white"/>
<path d="M378.297 168.326V186.927H375.097V168.326C375.097 168.246 375.132 168.168 375.195 168.111C375.257 168.054 375.342 168.022 375.43 168.022H377.965C378.053 168.022 378.137 168.054 378.2 168.111C378.262 168.168 378.297 168.246 378.297 168.326Z" fill="#FFBA55"/>
<path d="M378.298 185.309H375.097V185.662H378.298V185.309Z" fill="white"/>
<path d="M378.298 183.896H375.097V184.249H378.298V183.896Z" fill="white"/>
<path d="M378.298 171.18H375.097V171.533H378.298V171.18Z" fill="white"/>
<path d="M378.298 169.767H375.097V170.12H378.298V169.767Z" fill="white"/>
<path d="M378.293 186.927V169.174C378.293 169.093 378.329 169.016 378.391 168.959C378.453 168.902 378.538 168.87 378.626 168.87H382.274C382.362 168.87 382.447 168.902 382.509 168.959C382.572 169.016 382.607 169.093 382.607 169.174V186.927H378.293Z" fill="#F65B2B"/>
<path d="M382.606 184.705H378.293V185.058H382.606V184.705Z" fill="white"/>
<path d="M381.841 178.322V169.887H379.059V178.322H381.841Z" fill="white"/>
<path d="M375.1 169.174V186.927H370.787V169.174C370.787 169.093 370.822 169.016 370.885 168.959C370.947 168.902 371.032 168.87 371.12 168.87H374.768C374.856 168.87 374.941 168.902 375.003 168.959C375.065 169.016 375.1 169.093 375.1 169.174Z" fill="#7CA1B1"/>
<path d="M375.1 184.705H370.787V185.058H375.1V184.705Z" fill="white"/>
<path d="M374.335 178.322V169.887H371.552V178.322H374.335Z" fill="white"/>
<path d="M339.096 173.07V199.68H334.518V173.07C334.518 172.954 334.568 172.844 334.657 172.762C334.746 172.681 334.867 172.635 334.993 172.635H338.62C338.682 172.635 338.744 172.646 338.802 172.668C338.86 172.69 338.912 172.722 338.956 172.762C339 172.803 339.036 172.85 339.059 172.903C339.083 172.956 339.096 173.013 339.096 173.07Z" fill="#F65B2B"/>
<path d="M339.096 197.366H334.518V197.871H339.096V197.366Z" fill="white"/>
<path d="M339.096 195.344H334.518V195.849H339.096V195.344Z" fill="white"/>
<path d="M339.096 177.153H334.518V177.658H339.096V177.153Z" fill="white"/>
<path d="M339.096 175.131H334.518V175.636H339.096V175.131Z" fill="white"/>
<path d="M339.09 199.68V174.282C339.09 174.225 339.102 174.169 339.126 174.116C339.15 174.063 339.185 174.015 339.229 173.975C339.274 173.935 339.326 173.903 339.384 173.881C339.442 173.859 339.503 173.848 339.566 173.848H344.785C344.911 173.848 345.032 173.893 345.121 173.975C345.21 174.057 345.261 174.167 345.261 174.282V199.68H339.09Z" fill="#FFBA55"/>
<path d="M345.26 196.502H339.09V197.007H345.26V196.502Z" fill="white"/>
<path d="M344.166 187.37V175.303H340.185V187.37H344.166Z" fill="white"/>
<path d="M323.778 173.07V199.68H328.356V173.07C328.356 172.954 328.306 172.844 328.216 172.762C328.127 172.681 328.006 172.635 327.88 172.635H324.253C324.127 172.635 324.006 172.681 323.917 172.762C323.828 172.844 323.778 172.954 323.778 173.07Z" fill="#FFBA55"/>
<path d="M328.356 197.366H323.777V197.871H328.356V197.366Z" fill="white"/>
<path d="M328.356 195.344H323.777V195.849H328.356V195.344Z" fill="white"/>
<path d="M328.356 177.153H323.777V177.658H328.356V177.153Z" fill="white"/>
<path d="M328.356 175.131H323.777V175.636H328.356V175.131Z" fill="white"/>
<path d="M323.783 199.68V174.282C323.783 174.167 323.733 174.057 323.644 173.975C323.554 173.893 323.433 173.848 323.307 173.848H318.088C318.026 173.848 317.964 173.859 317.906 173.881C317.849 173.903 317.796 173.935 317.752 173.975C317.708 174.015 317.673 174.063 317.649 174.116C317.625 174.169 317.613 174.225 317.613 174.282V199.68H323.783Z" fill="#F65B2B"/>
<path d="M323.783 196.502H317.613V197.007H323.783V196.502Z" fill="white"/>
<path d="M322.688 187.37V175.303H318.707V187.37H322.688Z" fill="white"/>
<path d="M334.522 174.282V199.68H328.351V174.282C328.351 174.167 328.401 174.056 328.491 173.975C328.58 173.893 328.701 173.848 328.827 173.848H334.046C334.172 173.848 334.293 173.893 334.382 173.975C334.472 174.056 334.522 174.167 334.522 174.282Z" fill="#7CA1B1"/>
<path d="M334.522 196.502H328.352V197.007H334.522V196.502Z" fill="white"/>
<path d="M333.427 187.37V175.303H329.446V187.37H333.427Z" fill="white"/>
<path d="M351.431 174.283V199.68H345.26V174.283C345.26 174.167 345.311 174.057 345.4 173.975C345.489 173.893 345.61 173.848 345.736 173.848H350.955C351.081 173.848 351.202 173.893 351.292 173.975C351.381 174.057 351.431 174.167 351.431 174.283Z" fill="#7CA1B1"/>
<path d="M351.431 196.502H345.261V197.007H351.431V196.502Z" fill="white"/>
<path d="M350.336 187.37V175.303H346.355V187.37H350.336Z" fill="white"/>
<path d="M382.218 216.257V242.868H377.64V216.257C377.64 216.142 377.69 216.031 377.779 215.95C377.868 215.868 377.989 215.822 378.115 215.822H381.742C381.868 215.822 381.989 215.868 382.078 215.95C382.168 216.031 382.218 216.142 382.218 216.257Z" fill="#F65B2B"/>
<path d="M382.218 240.553H377.64V241.058H382.218V240.553Z" fill="white"/>
<path d="M382.218 238.532H377.64V239.037H382.218V238.532Z" fill="white"/>
<path d="M382.218 220.34H377.64V220.845H382.218V220.34Z" fill="white"/>
<path d="M382.218 218.319H377.64V218.824H382.218V218.319Z" fill="white"/>
<path d="M382.212 242.868V217.47C382.212 217.355 382.262 217.244 382.352 217.162C382.441 217.081 382.562 217.035 382.688 217.035H387.907C388.033 217.035 388.154 217.081 388.243 217.162C388.332 217.244 388.383 217.355 388.383 217.47V242.868H382.212Z" fill="#FFBA55"/>
<path d="M388.382 239.689H382.212V240.194H388.382V239.689Z" fill="white"/>
<path d="M387.288 230.558V218.49H383.307V230.558H387.288Z" fill="white"/>
<path d="M366.899 216.257V242.868H371.477V216.257C371.477 216.142 371.427 216.031 371.338 215.95C371.249 215.868 371.128 215.822 371.002 215.822H367.375C367.313 215.822 367.251 215.834 367.193 215.855C367.135 215.877 367.083 215.909 367.039 215.95C366.995 215.99 366.96 216.038 366.936 216.091C366.912 216.144 366.899 216.2 366.899 216.257Z" fill="#FFBA55"/>
<path d="M371.478 240.553H366.899V241.058H371.478V240.553Z" fill="white"/>
<path d="M371.478 238.532H366.899V239.037H371.478V238.532Z" fill="white"/>
<path d="M371.478 220.34H366.899V220.845H371.478V220.34Z" fill="white"/>
<path d="M371.478 218.319H366.899V218.824H371.478V218.319Z" fill="white"/>
<path d="M377.644 217.47V242.868H371.473V217.47C371.473 217.355 371.524 217.244 371.613 217.162C371.702 217.081 371.823 217.035 371.949 217.035H377.168C377.294 217.035 377.415 217.081 377.504 217.162C377.594 217.244 377.644 217.355 377.644 217.47Z" fill="#7CA1B1"/>
<path d="M377.644 239.689H371.473V240.195H377.644V239.689Z" fill="white"/>
<path d="M376.549 230.558V218.49H372.568V230.558H376.549Z" fill="white"/>
<path d="M386.872 95.8036C386.776 95.6985 386.657 95.6133 386.523 95.5535C386.388 95.4937 386.241 95.4608 386.092 95.4568C385.696 95.5056 385.715 95.9829 385.019 96.5863C384.452 97.0782 383.356 97.7003 382.478 97.4387C381.746 97.2205 381.848 96.5917 380.986 96.0322C380.492 95.725 379.922 95.5349 379.328 95.4789C380.095 98.2999 381.515 100.2 383.146 100.2C384.713 100.2 386.086 98.4446 386.872 95.8036Z" fill="#FFBA55"/>
<path d="M382.688 104.023C381.99 104.053 381.617 104.734 380.263 106.794C379.597 107.805 379.103 108.53 378.736 109.068C378.73 109.268 378.721 109.468 378.721 109.671H387.57C387.57 109.47 387.562 109.274 387.556 109.076C387.052 108.491 386.29 107.616 385.159 106.24C383.827 104.618 383.374 103.994 382.688 104.023Z" fill="#FFBA55"/>
<path d="M383.146 100.674C380.374 100.674 378.203 96.2886 378.203 90.6902V90.2166H388.088V90.6902C388.088 96.2886 385.917 100.674 383.146 100.674ZM379.244 91.1637C379.358 96.3061 381.315 99.7264 383.146 99.7264C384.976 99.7264 386.933 96.3061 387.047 91.1637H379.244Z" fill="white"/>
<path d="M388.088 110.144H378.203V109.671C378.203 104.072 380.374 99.6875 383.146 99.6875C385.917 99.6875 388.088 104.072 388.088 109.671V110.144ZM379.244 109.197H387.047C386.933 104.055 384.976 100.635 383.146 100.635C381.315 100.635 379.358 104.055 379.244 109.197Z" fill="white"/>
<path d="M391.11 109.197H389.555V91.1636H391.11C391.178 91.1638 391.245 91.1517 391.308 91.128C391.372 91.1043 391.429 91.0695 391.477 91.0255C391.525 90.9815 391.564 90.9292 391.59 90.8717C391.616 90.8141 391.63 90.7524 391.63 90.69C391.63 90.6277 391.616 90.566 391.59 90.5084C391.564 90.4509 391.525 90.3986 391.477 90.3546C391.429 90.3106 391.372 90.2757 391.308 90.252C391.245 90.2284 391.178 90.2163 391.11 90.2165H375.182C375.114 90.2163 375.046 90.2284 374.983 90.252C374.92 90.2757 374.863 90.3106 374.815 90.3546C374.766 90.3986 374.728 90.4509 374.702 90.5084C374.676 90.566 374.662 90.6277 374.662 90.69C374.662 90.7524 374.676 90.8141 374.702 90.8717C374.728 90.9292 374.766 90.9815 374.815 91.0255C374.863 91.0695 374.92 91.1043 374.983 91.128C375.046 91.1517 375.114 91.1638 375.182 91.1636H376.737V109.197H375.182C375.045 109.197 374.913 109.247 374.816 109.336C374.719 109.425 374.664 109.545 374.664 109.671C374.664 109.796 374.719 109.917 374.816 110.006C374.913 110.094 375.045 110.144 375.182 110.144H391.11C391.247 110.144 391.379 110.094 391.476 110.006C391.573 109.917 391.628 109.796 391.628 109.671C391.628 109.545 391.573 109.425 391.476 109.336C391.379 109.247 391.247 109.197 391.11 109.197ZM377.773 91.1636H388.519V109.197H377.773V91.1636Z" fill="#7CA1B1"/>
<path d="M374.915 151.861C374.878 151.111 374.901 150.374 374.926 149.637L375.45 147.517L376.491 143.276L377.531 139.036L378.052 136.916C378.395 136.244 378.699 135.564 379.078 134.899C379.109 135.648 379.066 136.381 379.063 137.123L378.543 139.243L377.502 143.484L376.461 147.724L375.945 149.845C375.623 150.522 375.299 151.198 374.915 151.861Z" fill="#FCFCFC"/>
<path d="M377.25 153.886C376.654 151.037 376.088 148.184 375.55 145.328C375.271 143.901 374.933 142.481 374.777 141.038C374.602 139.59 374.532 138.133 374.568 136.676L374.671 136.662C375.15 138.052 375.528 139.47 375.803 140.905C376.093 142.33 376.202 143.779 376.37 145.221C376.726 148.101 377.053 150.985 377.352 153.873L377.25 153.886Z" fill="#F65B2B"/>
<path d="M381.792 137.351C381.698 138.096 381.548 138.821 381.396 139.546L380.511 141.562L378.748 145.599L376.986 149.635L376.105 151.654C375.649 152.267 375.231 152.895 374.742 153.496C374.841 152.752 375.011 152.034 375.142 151.303L376.024 149.284L377.786 145.248L379.548 141.211L380.426 139.192C380.861 138.571 381.298 137.95 381.792 137.351Z" fill="#FFBA55"/>
<path d="M373.264 137.283L369.134 138.158L372.558 151.651L376.687 150.776L373.264 137.283Z" fill="#FFBA55"/>
<path d="M381.357 156.074V156.327C381.391 156.94 381.158 157.541 380.709 157.998C380.26 158.455 379.632 158.731 378.962 158.766H371.767C371.097 158.731 370.468 158.455 370.02 157.998C369.571 157.541 369.338 156.94 369.372 156.327V146.458C369.338 145.845 369.571 145.244 370.02 144.787C370.468 144.33 371.097 144.054 371.767 144.019H378.962C379.632 144.054 380.26 144.33 380.709 144.787C381.158 145.244 381.391 145.845 381.357 146.458V156.074Z" fill="#7CA1B1"/>
<path d="M381.357 147.766H369.372V148.713H381.357V147.766Z" fill="#FCFCFC"/>
<path d="M381.357 149.66H369.372V150.607H381.357V149.66Z" fill="#FCFCFC"/>
<path d="M285.595 183.303C285.499 183.198 285.38 183.113 285.245 183.053C285.111 182.993 284.964 182.96 284.814 182.956C284.418 183.005 284.437 183.482 283.742 184.086C283.174 184.578 282.078 185.2 281.2 184.938C280.468 184.72 280.57 184.091 279.708 183.532C279.214 183.224 278.644 183.034 278.05 182.978C278.818 185.799 280.238 187.7 281.868 187.7C283.435 187.7 284.809 185.944 285.595 183.303Z" fill="#FFBA55"/>
<path d="M281.41 191.523C280.713 191.553 280.339 192.233 278.985 194.293C278.32 195.305 277.825 196.03 277.458 196.567C277.452 196.768 277.444 196.967 277.444 197.171H286.293C286.293 196.969 286.284 196.773 286.279 196.575C285.774 195.991 285.012 195.115 283.882 193.739C282.55 192.117 282.097 191.493 281.41 191.523Z" fill="#FFBA55"/>
<path d="M281.868 188.173C279.097 188.173 276.926 183.788 276.926 178.189V177.716H286.811V178.189C286.811 183.788 284.64 188.173 281.868 188.173ZM277.967 178.663C278.081 183.805 280.038 187.226 281.868 187.226C283.699 187.226 285.656 183.805 285.769 178.663H277.967Z" fill="white"/>
<path d="M286.811 197.644H276.926V197.17C276.926 191.572 279.097 187.187 281.868 187.187C284.64 187.187 286.811 191.572 286.811 197.17V197.644ZM277.967 196.697H285.769C285.656 191.554 283.699 188.134 281.868 188.134C280.038 188.134 278.081 191.554 277.967 196.697Z" fill="white"/>
<path d="M289.832 196.697H288.278V178.663H289.832C289.969 178.663 290.101 178.613 290.198 178.524C290.296 178.435 290.35 178.315 290.35 178.189C290.35 178.064 290.296 177.943 290.198 177.854C290.101 177.766 289.969 177.716 289.832 177.716H273.905C273.767 177.716 273.635 177.766 273.538 177.854C273.441 177.943 273.386 178.064 273.386 178.189C273.386 178.315 273.441 178.435 273.538 178.524C273.635 178.613 273.767 178.663 273.905 178.663H275.459V196.697H273.905C273.767 196.697 273.635 196.746 273.538 196.835C273.441 196.924 273.386 197.044 273.386 197.17C273.386 197.296 273.441 197.416 273.538 197.505C273.635 197.594 273.767 197.644 273.905 197.644H289.832C289.969 197.644 290.101 197.594 290.198 197.505C290.296 197.416 290.35 197.296 290.35 197.17C290.35 197.044 290.296 196.924 290.198 196.835C290.101 196.746 289.969 196.697 289.832 196.697ZM276.495 178.663H287.241V196.697H276.495V178.663Z" fill="#7CA1B1"/>
<path d="M234.483 150.545H172.908C172.141 150.545 171.52 151.113 171.52 151.814V178.689C171.52 179.39 172.141 179.958 172.908 179.958H234.483C235.25 179.958 235.872 179.39 235.872 178.689V151.814C235.872 151.113 235.25 150.545 234.483 150.545Z" fill="#E5E1E5"/>
<path d="M235.872 150.545H222.203V179.958H235.872V150.545Z" fill="#A5A5A5"/>
<path d="M218.138 173.877H178.136V175.645H218.138V173.877Z" fill="#A5A5A5"/>
<path d="M218.138 165.631H178.136V167.399H218.138V165.631Z" fill="#A5A5A5"/>
<path d="M218.138 158.099H178.136V159.867H218.138V158.099Z" fill="#A5A5A5"/>
<path d="M204.877 186.585H203.746V195.554H204.877V186.585Z" fill="#E5E1E5"/>
<path d="M222.701 197.606H185.922V192.97L204.312 190.386L222.701 192.97V197.606Z" fill="#E5E1E5"/>
<path d="M178.253 159.026L177.016 157.481H175.491V154.135H181.134V157.481H178.592L178.253 159.026Z" fill="#FFBA55"/>
<path d="M178.253 166.561L177.016 165.015H175.491V161.67H181.134V165.015H178.592L178.253 166.561Z" fill="#FFBA55"/>
<path d="M178.253 174.761L177.016 173.216H175.491V169.87H181.134V173.216H178.592L178.253 174.761Z" fill="#FFBA55"/>
<path d="M211.116 188.263C211.116 188.263 195.457 178.552 195.222 178.644C194.987 178.736 193.436 179.492 201.218 184.795C201.218 184.795 199.185 185.882 200.706 189.776C200.951 190.399 201.349 190.962 201.869 191.423C202.388 191.884 203.016 192.231 203.705 192.437C205.415 192.95 207.739 193.472 208.793 192.923L211.116 188.263Z" fill="#F9977A"/>
<path d="M192.778 256.985L190.401 263.401C190.401 263.401 181.59 269.909 170.247 271.726C170.247 271.726 166.789 273.209 166.81 275.509L201.028 275.248L200.919 263.321L201.919 257.193L192.778 256.985Z" fill="#F9977A"/>
<path d="M167.356 273.948L200.645 273.694C200.756 273.693 200.867 273.712 200.971 273.75C201.074 273.789 201.169 273.845 201.248 273.917C201.328 273.988 201.391 274.074 201.435 274.167C201.478 274.261 201.501 274.362 201.502 274.464V274.467C201.503 274.569 201.482 274.67 201.44 274.765C201.398 274.86 201.337 274.946 201.258 275.019C201.18 275.091 201.087 275.149 200.984 275.189C200.881 275.229 200.771 275.25 200.659 275.251L166.34 275.513C166.34 275.513 165.352 274.576 167.356 273.948Z" fill="#D6694B"/>
<path d="M177.238 274.262C177.238 274.262 177.547 272.655 175.779 270.447C176.159 270.077 176.629 269.792 177.151 269.617C177.673 269.442 178.233 269.381 178.785 269.438C179.191 270.05 179.523 270.7 179.775 271.377C180.207 272.456 180.514 273.754 180.014 274.63L177.238 274.262Z" fill="#D6694B"/>
<path d="M185.51 266.393C185.51 266.393 188.385 270.482 186.687 274.232L189.944 274.207C189.944 274.207 191.705 268.289 188.167 264.871C188.167 264.871 185.987 264.939 185.51 266.393Z" fill="#D6694B"/>
<path d="M185.639 236.16L183.173 242.548C183.173 242.548 174.271 248.953 162.904 250.638C162.904 250.638 159.426 252.081 159.415 254.38L193.633 254.518L193.691 242.59L194.776 236.474L185.639 236.16Z" fill="#F9977A"/>
<path d="M159.982 252.826L193.272 252.959C193.383 252.96 193.494 252.98 193.597 253.02C193.7 253.059 193.793 253.117 193.872 253.189C193.951 253.262 194.013 253.348 194.055 253.442C194.097 253.537 194.119 253.638 194.118 253.74V253.743C194.117 253.949 194.027 254.146 193.867 254.291C193.706 254.436 193.49 254.517 193.264 254.516L158.945 254.379C158.945 254.379 157.969 253.431 159.982 252.826Z" fill="#D6694B"/>
<path d="M169.859 253.255C169.859 253.255 170.19 251.651 168.453 249.424C168.839 249.057 169.313 248.779 169.837 248.609C170.361 248.44 170.922 248.386 171.473 248.449C171.871 249.066 172.193 249.72 172.436 250.4C172.853 251.483 173.142 252.785 172.63 253.655L169.859 253.255Z" fill="#D6694B"/>
<path d="M178.24 245.483C178.24 245.483 181.058 249.605 179.307 253.335L182.565 253.348C182.565 253.348 184.408 247.451 180.918 243.992C180.918 243.992 178.737 244.035 178.24 245.483Z" fill="#D6694B"/>
<path d="M226.768 210.402L204.178 203.218C201.36 202.321 198.27 202.47 195.572 203.633C192.874 204.797 190.782 206.881 189.748 209.438C185.757 219.173 182.71 229.21 180.642 239.432C180.584 239.741 180.652 240.059 180.834 240.325C181.017 240.59 181.3 240.785 181.629 240.872L188.76 242.748L189.465 259.29C189.479 259.617 189.631 259.927 189.89 260.155C190.149 260.382 190.494 260.509 190.852 260.509H201.079C201.409 260.509 201.728 260.402 201.98 260.206C202.231 260.01 202.397 259.739 202.45 259.441L207.31 231.791L218.541 232.714C218.541 232.714 277.472 243.671 268.134 204.227L242.895 205.382L239.95 207.879C238.21 209.353 236.064 210.367 233.742 210.812C231.419 211.256 229.008 211.114 226.768 210.402Z" fill="#6C7FD8"/>
<path d="M231.536 234.036C225.505 231.373 219.432 228.794 213.361 226.211L204.228 222.39C201.187 221.109 198.137 219.846 195.079 218.601L195.122 218.623C194.813 218.462 194.47 218.362 194.116 218.331C193.762 218.299 193.405 218.336 193.068 218.439C192.432 218.652 191.877 219.027 191.466 219.519C190.715 220.454 190.159 221.507 189.826 222.626C189.174 224.806 188.778 227.043 188.644 229.3C188.344 233.78 188.383 238.273 188.76 242.748C188.731 240.507 188.68 238.269 188.74 236.031C188.798 233.795 188.88 231.559 189.117 229.337C189.314 227.121 189.744 224.928 190.401 222.788C190.72 221.742 191.246 220.758 191.952 219.885C192.289 219.481 192.745 219.173 193.266 218.997C193.512 218.924 193.772 218.898 194.03 218.92C194.287 218.942 194.537 219.012 194.764 219.126L194.797 219.143L194.808 219.147C197.85 220.426 200.899 221.69 203.955 222.939L213.118 226.7C219.245 229.171 225.369 231.646 231.536 234.036Z" fill="#065082"/>
<path d="M181.412 235.731C182.513 236.337 183.678 236.84 184.89 237.231C186.091 237.648 187.337 237.951 188.606 238.135C187.506 237.527 186.341 237.025 185.128 236.635C183.926 236.219 182.681 235.916 181.412 235.731Z" fill="#065082"/>
<path d="M203.072 255.904C200.788 255.679 198.493 255.573 196.196 255.587C193.9 255.571 191.604 255.677 189.321 255.904C191.604 256.13 193.9 256.236 196.196 256.221C198.493 256.234 200.788 256.128 203.072 255.904Z" fill="#065082"/>
<path d="M207.31 231.791C207.815 231.349 208.226 230.824 208.521 230.244C208.84 229.674 209.039 229.055 209.108 228.418C208.602 228.86 208.191 229.385 207.897 229.966C207.579 230.536 207.38 231.155 207.31 231.791Z" fill="#065082"/>
<path d="M292.471 201.239H287.342V275.599H292.471V201.239Z" fill="#935B50"/>
<path d="M301.407 197.644H149.037C148.548 197.644 148.152 198.006 148.152 198.452V200.431C148.152 200.877 148.548 201.239 149.037 201.239H301.407C301.895 201.239 302.291 200.877 302.291 200.431V198.452C302.291 198.006 301.895 197.644 301.407 197.644Z" fill="#935B50"/>
<path d="M163.511 201.239H158.382V275.599H163.511V201.239Z" fill="#935B50"/>
<path d="M154.29 201.239H296.504V211.383C296.504 211.811 296.318 212.222 295.986 212.526C295.655 212.829 295.205 212.999 294.736 212.999H156.058C155.589 212.999 155.139 212.829 154.808 212.526C154.476 212.222 154.29 211.811 154.29 211.383L154.29 201.239Z" fill="#C38F86"/>
<path d="M169.119 128.774L197.342 128.891L205.605 137.198V128.891H216.191C216.744 128.891 217.274 128.69 217.664 128.333C218.055 127.976 218.274 127.492 218.274 126.987V102.602C218.274 102.097 218.055 101.613 217.664 101.256C217.274 100.899 216.744 100.698 216.191 100.698H169.129C168.576 100.698 168.047 100.899 167.656 101.256C167.265 101.613 167.046 102.097 167.046 102.602V126.87C167.046 127.373 167.264 127.856 167.653 128.213C168.041 128.57 168.569 128.771 169.119 128.774Z" fill="#FFBA55"/>
<mask id="mask0_1031_1793" style="mask-type:luminance" maskUnits="userSpaceOnUse" x="167" y="100" width="52" height="38">
<path d="M169.119 128.774L197.342 128.891L205.605 137.198V128.891H216.191C216.744 128.891 217.274 128.69 217.664 128.333C218.055 127.976 218.274 127.492 218.274 126.987V102.602C218.274 102.097 218.055 101.613 217.664 101.256C217.274 100.899 216.744 100.698 216.191 100.698H169.129C168.576 100.698 168.047 100.899 167.656 101.256C167.265 101.613 167.046 102.097 167.046 102.602V126.87C167.046 127.373 167.264 127.856 167.653 128.213C168.041 128.57 168.569 128.771 169.119 128.774Z" fill="white"/>
</mask>
<g mask="url(#mask0_1031_1793)">
<path d="M218.274 100.698V101.684L199.259 114.732L218.274 127.779V128.765L218.171 128.891H217.023L197.824 115.712L192.66 119.257L187.496 115.712L168.297 128.891H167.149L167.046 128.765V127.779L186.062 114.732L167.046 101.684V100.698H168.48L192.66 117.291L216.84 100.698H218.274Z" fill="#E5E1E5"/>
</g>
<path d="M256.272 169.166L256.946 146.912L238.765 147.824L239.563 161.109C239.604 161.802 239.795 162.48 240.123 163.105C240.451 163.73 240.911 164.29 241.476 164.753C242.041 165.216 242.701 165.572 243.416 165.802C244.132 166.032 244.891 166.131 245.648 166.093L246.063 166.072L246.198 169.87L256.272 169.166Z" fill="#F9977A"/>
<path d="M245.996 166.072L248.903 165.926L246.131 169.87L245.996 166.072Z" fill="#DD765E"/>
<path d="M239.95 207.879C241.83 206.286 242.004 204.082 242.025 201.739L242.956 198.653C239.742 205.349 231.933 203.979 231.933 203.979C228.021 203.863 207.425 193.156 207.425 193.156L209.65 187.355L230.781 192.031C230.781 192.031 234.472 186.062 238.164 179.402C241.855 172.741 246.198 169.871 246.198 169.871L257.462 168.325C277.653 169.94 268.134 204.227 268.134 204.227C277.472 243.671 218.541 232.714 218.541 232.714C217.318 229.453 216.935 225.978 217.419 222.559C217.903 219.14 219.242 215.869 221.333 212.999C224.54 212.999 229.132 213.302 234.166 211.461C236.36 210.673 238.336 209.449 239.95 207.879Z" fill="#F73C4F"/>
<path d="M265.604 231.876H262.133V275.318H265.604V231.876Z" fill="#C38F86"/>
<path d="M231.584 231.876H228.113V275.318H231.584V231.876Z" fill="#C38F86"/>
<path d="M230.781 192.031C230.704 192.387 230.735 192.756 230.873 193.097C230.999 193.442 231.229 193.747 231.536 193.978C231.667 193.623 231.664 193.238 231.527 192.885C231.39 192.532 231.128 192.231 230.781 192.031Z" fill="#B02336"/>
<path d="M241.381 201.228C242.528 199.813 243.569 198.328 244.496 196.784C245.45 195.254 246.289 193.666 247.005 192.031C245.856 193.445 244.816 194.93 243.89 196.475C242.937 198.006 242.099 199.594 241.381 201.228Z" fill="#B02336"/>
<path d="M157.944 194.376H179.212V197.275H157.944C157.571 197.275 157.213 197.14 156.949 196.898C156.685 196.657 156.537 196.33 156.537 195.989V195.662C156.537 195.493 156.573 195.326 156.644 195.17C156.715 195.014 156.818 194.872 156.949 194.753C157.08 194.633 157.235 194.539 157.405 194.474C157.576 194.409 157.759 194.376 157.944 194.376Z" fill="white"/>
<path d="M179.876 197.349C179.873 197.421 179.84 197.489 179.783 197.538C179.725 197.588 179.649 197.614 179.57 197.612H157.541C157.106 197.516 156.719 197.289 156.443 196.967C156.166 196.646 156.016 196.249 156.016 195.84C156.016 195.431 156.166 195.034 156.443 194.713C156.719 194.392 157.106 194.165 157.541 194.069H179.57C179.649 194.067 179.725 194.093 179.783 194.142C179.84 194.192 179.873 194.26 179.876 194.331V194.538C179.873 194.61 179.84 194.678 179.783 194.727C179.725 194.776 179.649 194.803 179.57 194.801H157.541C157.286 194.857 157.059 194.99 156.896 195.179C156.734 195.367 156.646 195.6 156.646 195.84C156.646 196.08 156.734 196.313 156.896 196.502C157.059 196.69 157.286 196.823 157.541 196.88H179.57C179.649 196.878 179.725 196.904 179.783 196.953C179.84 197.003 179.873 197.071 179.876 197.142V197.349Z" fill="#F65B2B"/>
<path d="M154.632 190.833H175.9V193.732H154.632C154.259 193.732 153.901 193.596 153.637 193.355C153.373 193.114 153.225 192.787 153.225 192.446V192.119C153.225 191.778 153.373 191.451 153.637 191.21C153.901 190.968 154.259 190.833 154.632 190.833Z" fill="white"/>
<path d="M176.564 193.806C176.562 193.878 176.528 193.946 176.471 193.995C176.414 194.044 176.338 194.071 176.259 194.069H154.229C153.795 193.973 153.408 193.746 153.131 193.424C152.855 193.103 152.704 192.706 152.704 192.297C152.704 191.888 152.855 191.491 153.131 191.17C153.408 190.849 153.795 190.622 154.229 190.526H176.259C176.338 190.523 176.414 190.55 176.471 190.599C176.528 190.648 176.562 190.716 176.564 190.788V190.995C176.562 191.067 176.528 191.135 176.471 191.184C176.414 191.233 176.338 191.26 176.259 191.258H154.229C153.974 191.314 153.747 191.447 153.585 191.636C153.423 191.824 153.334 192.057 153.334 192.297C153.334 192.537 153.423 192.77 153.585 192.958C153.747 193.147 153.974 193.28 154.229 193.337H176.259C176.338 193.335 176.414 193.361 176.471 193.41C176.528 193.459 176.562 193.527 176.564 193.599V193.806Z" fill="#FFBA55"/>
<path d="M161.411 187.29H182.679V190.189H161.411C161.038 190.189 160.68 190.053 160.416 189.812C160.152 189.571 160.004 189.244 160.004 188.903V188.576C160.004 188.235 160.152 187.908 160.416 187.666C160.68 187.425 161.038 187.29 161.411 187.29Z" fill="white"/>
<path d="M183.343 190.263C183.34 190.335 183.307 190.403 183.25 190.452C183.192 190.501 183.116 190.528 183.037 190.526H161.008C160.573 190.429 160.186 190.202 159.91 189.881C159.633 189.56 159.483 189.163 159.483 188.754C159.483 188.345 159.633 187.948 159.91 187.627C160.186 187.305 160.573 187.079 161.008 186.982H183.037C183.116 186.98 183.192 187.007 183.25 187.056C183.307 187.105 183.34 187.173 183.343 187.245V187.452C183.34 187.524 183.307 187.592 183.25 187.641C183.192 187.69 183.116 187.717 183.037 187.714H161.008C160.753 187.771 160.526 187.904 160.363 188.093C160.201 188.281 160.113 188.514 160.113 188.754C160.113 188.994 160.201 189.227 160.363 189.415C160.526 189.604 160.753 189.737 161.008 189.794H183.037C183.116 189.791 183.192 189.818 183.25 189.867C183.307 189.916 183.34 189.984 183.343 190.056V190.263Z" fill="#F65B2B"/>
<path d="M235.874 141.285C235.874 141.285 235.405 136.571 240.504 139.784C240.504 139.784 243.406 132.617 252.494 142.144C252.494 142.144 265.834 142.537 260.806 152.779C261.524 154.279 262.496 155.666 263.686 156.889C267.336 160.745 269.56 160.299 272.684 164.656C275.137 168.077 275.385 170.609 275.434 171.281C275.629 173.501 275.108 175.725 273.934 177.677C271.947 180.886 267.868 183.511 263.436 183.388C258.352 183.247 255.783 179.093 252.689 176.535C246.063 171.057 245.821 159.692 245.1 157.743C245.1 157.743 248.439 155.854 245.692 153.936C245.391 153.72 245.042 153.566 244.668 153.487C244.295 153.408 243.907 153.405 243.533 153.478C243.279 153.5 243.042 153.606 242.868 153.775C242.693 153.945 242.593 154.168 242.585 154.401L238.765 147.824C238.765 147.824 235.304 148.759 235.261 144.954C235.261 144.954 231.545 143.195 235.874 141.285Z" fill="#160B07"/>
<path d="M276.399 224.814C276.399 224.814 280.753 212.877 277.345 188.484C277.345 188.484 276.02 180.267 267.124 179.661C258.228 179.056 251.697 192.235 249.047 205.713C246.397 219.191 240.529 231.238 221.317 231.573C221.317 231.573 195.93 235.54 249.983 237.789C249.983 237.789 273.087 237.962 276.399 224.814Z" fill="#935B50"/>
<path d="M245.035 160.976C247.716 160.976 247.72 157.169 245.035 157.169C242.355 157.169 242.351 160.976 245.035 160.976Z" fill="#F73C4F"/>
<path d="M407.91 275.079H78.0903V276.234H407.91V275.079Z" fill="#935B50"/>
</svg>
