<svg width="408" height="208" viewBox="0 0 408 208" fill="none" xmlns="http://www.w3.org/2000/svg">
<path d="M391.103 198.989C379.228 207.535 363.838 207.964 348.962 206.914C346.885 206.768 344.822 206.596 342.779 206.41C342.766 206.407 342.75 206.408 342.738 206.405C342.639 206.396 342.541 206.387 342.447 206.381C342.025 206.342 341.603 206.302 341.186 206.263L341.284 206.451L341.594 207.034C341.483 206.839 341.371 206.648 341.26 206.452C341.227 206.394 341.191 206.335 341.158 206.277C337.304 199.578 333.482 192.632 332.507 184.983C331.5 177.043 334.332 168.052 341.327 164.15C342.245 163.64 343.216 163.233 344.224 162.938C344.642 162.811 345.066 162.708 345.495 162.617C348.119 162.035 350.85 162.161 353.408 162.984C355.967 163.806 358.26 165.294 360.052 167.294C361.843 169.295 363.069 171.737 363.604 174.368C364.138 176.999 363.961 179.725 363.091 182.265C369.022 176.19 367.915 166.334 365.869 158.098C363.82 149.861 361.338 140.696 365.507 133.298C367.825 129.18 371.9 126.625 376.474 125.596C376.614 125.566 376.754 125.536 376.895 125.51C382.345 124.407 388.01 125.399 392.759 128.286C401.505 133.792 405.997 144.23 407.455 154.455C409.803 170.908 404.605 189.271 391.103 198.989Z" fill="#F2F2F2"/>
<path d="M387.269 172.613C386.925 176.242 386.052 179.802 384.679 183.18C383.413 186.169 381.707 188.952 379.618 191.437C375.35 196.566 369.706 200.422 363.577 202.991C358.89 204.909 353.979 206.227 348.962 206.914C346.885 206.768 344.822 206.596 342.779 206.41C342.766 206.407 342.75 206.408 342.738 206.405C342.639 206.396 342.541 206.387 342.447 206.381C342.025 206.342 341.603 206.302 341.186 206.263L341.284 206.451L341.594 207.034C341.483 206.839 341.371 206.648 341.26 206.452C341.227 206.394 341.191 206.335 341.158 206.277C344.92 202.533 347.728 197.943 349.348 192.891C350.968 187.84 351.353 182.474 350.47 177.244C349.545 172.05 347.405 167.148 344.224 162.938C344.642 162.811 345.066 162.708 345.495 162.617C346.704 164.268 347.765 166.023 348.664 167.86C351.892 174.414 352.922 181.832 351.601 189.016C350.373 195.517 347.314 201.533 342.783 206.357C343.18 206.329 343.581 206.297 343.973 206.261C351.398 205.633 358.809 204.038 365.544 200.772C371.301 198.048 376.299 193.951 380.098 188.843C384.177 183.223 385.975 176.463 386.283 169.593C386.611 162.238 385.655 154.754 383.975 147.601C382.259 140.268 379.652 133.172 376.21 126.472C376.133 126.32 376.118 126.145 376.167 125.982C376.216 125.818 376.326 125.68 376.474 125.596C376.597 125.513 376.749 125.482 376.895 125.51C376.967 125.529 377.033 125.563 377.089 125.611C377.146 125.66 377.19 125.72 377.22 125.787C377.644 126.615 378.061 127.443 378.462 128.281C381.8 135.257 384.257 142.62 385.778 150.201C387.254 157.515 388.042 165.165 387.269 172.613Z" fill="white"/>
<path d="M232.208 202.765C238.274 207.13 246.136 207.35 253.735 206.813C254.796 206.739 255.849 206.651 256.893 206.556C256.899 206.554 256.908 206.555 256.914 206.553C256.964 206.549 257.015 206.544 257.063 206.541C257.278 206.521 257.494 206.501 257.707 206.481L257.657 206.577L257.498 206.875C257.555 206.775 257.612 206.677 257.669 206.578C257.686 206.548 257.704 206.518 257.721 206.488C259.69 203.066 261.642 199.518 262.14 195.61C262.655 191.555 261.208 186.962 257.635 184.969C257.166 184.708 256.67 184.5 256.155 184.349C255.941 184.285 255.725 184.232 255.506 184.185C254.165 183.888 252.77 183.953 251.463 184.373C250.156 184.793 248.985 185.553 248.07 186.575C247.154 187.597 246.528 188.844 246.255 190.188C245.983 191.532 246.073 192.924 246.517 194.222C243.488 191.119 244.053 186.084 245.098 181.877C246.145 177.67 247.413 172.988 245.283 169.209C244.68 168.195 243.869 167.321 242.904 166.643C241.938 165.964 240.84 165.498 239.681 165.274C239.609 165.259 239.538 165.244 239.466 165.23C236.682 164.667 233.788 165.174 231.362 166.649C226.895 169.461 224.6 174.793 223.855 180.016C222.656 188.421 225.311 197.801 232.208 202.765Z" fill="#F2F2F2"/>
<path d="M234.166 189.292C234.342 191.145 234.788 192.964 235.49 194.689C236.136 196.216 237.008 197.638 238.075 198.907C240.294 201.502 243.104 203.526 246.269 204.81C248.663 205.789 251.172 206.462 253.735 206.813C254.796 206.739 255.849 206.651 256.893 206.556C256.899 206.554 256.908 206.555 256.914 206.553C256.964 206.549 257.015 206.544 257.063 206.541C257.278 206.521 257.494 206.501 257.707 206.481L257.657 206.577L257.498 206.875C257.555 206.775 257.612 206.677 257.669 206.578C257.686 206.548 257.704 206.518 257.721 206.488C255.799 204.575 254.365 202.231 253.537 199.65C252.71 197.07 252.513 194.329 252.964 191.657C253.437 189.004 254.53 186.5 256.155 184.349C255.941 184.285 255.725 184.232 255.506 184.185C254.888 185.029 254.346 185.925 253.887 186.864C252.238 190.212 251.712 194.001 252.386 197.671C253.014 200.991 254.576 204.064 256.891 206.529C256.688 206.515 256.484 206.498 256.283 206.48C252.469 206.228 248.734 205.277 245.264 203.676C242.323 202.284 239.77 200.191 237.83 197.582C235.746 194.711 234.828 191.259 234.67 187.749C234.549 183.968 234.945 180.189 235.849 176.515C236.726 172.769 238.058 169.145 239.816 165.722C239.855 165.644 239.863 165.555 239.838 165.471C239.813 165.388 239.757 165.318 239.681 165.274C239.618 165.232 239.541 165.216 239.466 165.23C239.429 165.24 239.395 165.258 239.367 165.282C239.338 165.307 239.315 165.338 239.3 165.372C239.083 165.795 238.87 166.218 238.665 166.646C236.96 170.209 235.705 173.971 234.928 177.843C234.102 181.6 233.845 185.459 234.166 189.292Z" fill="white"/>
<path d="M70.4595 5.996H7.30373C5.3675 5.99874 3.51136 6.7683 2.14224 8.13597C0.773115 9.50365 0.00273907 11.3578 0 13.292V112.432C0.0027402 114.366 0.773115 116.22 2.14224 117.588C3.51136 118.956 5.3675 119.725 7.30373 119.728H70.4595C72.3958 119.725 74.2519 118.956 75.621 117.588C76.9902 116.22 77.7605 114.366 77.7633 112.432V13.292C77.7605 11.3578 76.9902 9.50365 75.621 8.13598C74.2519 6.7683 72.3958 5.99874 70.4595 5.996ZM76.904 112.432C76.9019 114.139 76.2223 115.775 75.0142 116.982C73.8061 118.189 72.1681 118.868 70.4595 118.87H7.30373C5.59519 118.868 3.95722 118.189 2.7491 116.982C1.54098 115.775 0.861341 114.139 0.859263 112.432V13.292C0.861341 11.5853 1.54098 9.94904 2.7491 8.74219C3.95722 7.53535 5.59519 6.85643 7.30373 6.85435H70.4595C72.1681 6.85643 73.8061 7.53535 75.0142 8.74219C76.2223 9.94904 76.9019 11.5853 76.904 13.292V112.432Z" fill="#3F3D56"/>
<path d="M205.793 119.728H142.638C140.701 119.726 138.845 118.956 137.476 117.589C136.106 116.221 135.336 114.366 135.334 112.432V13.292C135.336 11.3577 136.106 9.50315 137.476 8.13536C138.845 6.76756 140.701 5.99818 142.638 5.996H205.793C207.73 5.99818 209.586 6.76756 210.956 8.13536C212.325 9.50315 213.095 11.3577 213.097 13.292V112.432C213.095 114.366 212.325 116.221 210.956 117.589C209.586 118.956 207.73 119.726 205.793 119.728ZM142.638 6.85435C140.929 6.85629 139.291 7.53515 138.083 8.74203C136.875 9.94891 136.195 11.5852 136.193 13.292V112.432C136.195 114.139 136.875 115.775 138.083 116.982C139.291 118.189 140.929 118.868 142.638 118.87H205.793C207.502 118.868 209.14 118.189 210.348 116.982C211.556 115.775 212.236 114.139 212.238 112.432V13.292C212.236 11.5852 211.556 9.94891 210.348 8.74203C209.14 7.53515 207.502 6.85629 205.793 6.85435H142.638Z" fill="#3F3D56"/>
<path d="M115.141 63.5058H88.9337C88.8197 63.5058 88.7105 63.4606 88.6299 63.3801C88.5493 63.2996 88.5041 63.1904 88.5041 63.0766C88.5041 62.9628 88.5493 62.8536 88.6299 62.7731C88.7105 62.6926 88.8197 62.6474 88.9337 62.6474H115.141C115.255 62.6474 115.364 62.6926 115.445 62.7731C115.526 62.8536 115.571 62.9628 115.571 63.0766C115.571 63.1904 115.526 63.2996 115.445 63.3801C115.364 63.4606 115.255 63.5058 115.141 63.5058Z" fill="#3F3D56"/>
<path d="M109.556 75.2763C109.466 75.2763 109.379 75.2482 109.306 75.1959C109.233 75.1435 109.178 75.0696 109.149 74.9845C109.12 74.8994 109.119 74.8075 109.145 74.7216C109.172 74.6357 109.224 74.5602 109.296 74.5057L122.968 64.1007C123.126 63.9806 123.254 63.8257 123.342 63.648C123.43 63.4704 123.476 63.2748 123.476 63.0766C123.476 62.8784 123.43 62.6828 123.342 62.5052C123.254 62.3275 123.126 62.1726 122.968 62.0525L109.296 51.6475C109.205 51.5784 109.146 51.4763 109.131 51.3636C109.115 51.2509 109.146 51.1368 109.215 51.0463C109.284 50.9559 109.386 50.8964 109.499 50.8811C109.611 50.8658 109.726 50.8959 109.816 50.9647L123.489 61.3697C123.752 61.57 123.965 61.8281 124.112 62.1242C124.259 62.4203 124.335 62.7462 124.335 63.0766C124.335 63.407 124.259 63.7329 124.112 64.029C123.965 64.325 123.752 64.5833 123.489 64.7835L109.816 75.1885C109.742 75.2456 109.65 75.2764 109.556 75.2763Z" fill="#3F3D56"/>
<path d="M250.045 63.5058H223.838C223.724 63.5058 223.615 63.4606 223.534 63.3801C223.454 63.2996 223.408 63.1904 223.408 63.0766C223.408 62.9628 223.454 62.8536 223.534 62.7731C223.615 62.6926 223.724 62.6474 223.838 62.6474H250.045C250.159 62.6474 250.269 62.6926 250.349 62.7731C250.43 62.8536 250.475 62.9628 250.475 63.0766C250.475 63.1904 250.43 63.2996 250.349 63.3801C250.269 63.4606 250.159 63.5058 250.045 63.5058Z" fill="#3F3D56"/>
<path d="M244.461 75.2763C244.371 75.2763 244.283 75.2482 244.21 75.1959C244.137 75.1435 244.082 75.0696 244.053 74.9845C244.024 74.8994 244.023 74.8075 244.049 74.7216C244.076 74.6357 244.128 74.5602 244.2 74.5057L257.872 64.1007C258.03 63.9806 258.158 63.8257 258.246 63.648C258.334 63.4704 258.38 63.2748 258.38 63.0766C258.38 62.8784 258.334 62.6828 258.246 62.5052C258.158 62.3275 258.03 62.1726 257.872 62.0525L244.2 51.6475C244.109 51.5784 244.05 51.4763 244.035 51.3636C244.02 51.2509 244.05 51.1368 244.119 51.0463C244.188 50.9559 244.29 50.8964 244.403 50.8811C244.516 50.8658 244.63 50.8959 244.721 50.9647L258.393 61.3697C258.656 61.57 258.869 61.8281 259.016 62.1242C259.163 62.4203 259.239 62.7462 259.239 63.0766C259.239 63.407 259.163 63.7329 259.016 64.029C258.869 64.325 258.656 64.5833 258.393 64.7835L244.721 75.1885C244.646 75.2456 244.555 75.2764 244.461 75.2763Z" fill="#3F3D56"/>
<path d="M181.949 46.1241H166.912C165.944 46.123 165.015 45.7383 164.331 45.0544C163.646 44.3705 163.261 43.4432 163.26 42.4761V27.884C163.261 26.9168 163.646 25.9896 164.331 25.3057C165.015 24.6218 165.944 24.2371 166.912 24.236H181.949C182.917 24.2371 183.845 24.6218 184.53 25.3057C185.215 25.9896 185.6 26.9168 185.601 27.884V42.4761C185.6 43.4432 185.215 44.3705 184.53 45.0544C183.845 45.7383 182.917 46.123 181.949 46.1241Z" fill="#23A6F0"/>
<path d="M184.742 45.9095C184.685 45.9096 184.629 45.8985 184.577 45.8769C184.525 45.8553 184.478 45.8237 184.438 45.7838L163.815 25.1832C163.776 25.1434 163.744 25.0961 163.722 25.044C163.701 24.9919 163.69 24.9361 163.69 24.8798C163.69 24.8234 163.701 24.7676 163.722 24.7156C163.744 24.6635 163.776 24.6162 163.815 24.5763C163.855 24.5365 163.903 24.5049 163.955 24.4833C164.007 24.4618 164.063 24.4507 164.119 24.4507C164.176 24.4507 164.231 24.4618 164.284 24.4833C164.336 24.5049 164.383 24.5365 164.423 24.5764L185.045 45.1769C185.105 45.2369 185.146 45.3134 185.163 45.3966C185.179 45.4798 185.171 45.5661 185.138 45.6445C185.106 45.7229 185.051 45.79 184.98 45.8371C184.91 45.8843 184.826 45.9095 184.742 45.9095Z" fill="white"/>
<path d="M164.119 45.9095C164.034 45.9095 163.951 45.8843 163.881 45.8371C163.81 45.79 163.755 45.723 163.722 45.6445C163.69 45.5661 163.681 45.4799 163.698 45.3966C163.714 45.3134 163.755 45.2369 163.815 45.1769L184.438 24.5764C184.478 24.5365 184.525 24.5049 184.577 24.4834C184.629 24.4618 184.685 24.4507 184.742 24.4507C184.798 24.4507 184.854 24.4618 184.906 24.4834C184.958 24.5049 185.005 24.5365 185.045 24.5764C185.085 24.6162 185.117 24.6635 185.138 24.7156C185.16 24.7677 185.171 24.8235 185.171 24.8798C185.171 24.9362 185.16 24.992 185.138 25.044C185.117 25.0961 185.085 25.1434 185.045 25.1833L164.423 45.7838C164.383 45.8237 164.336 45.8554 164.284 45.8769C164.232 45.8985 164.176 45.9096 164.119 45.9095Z" fill="white"/>
<path d="M188.179 68.6559H160.252C158.828 68.6559 157.462 68.0907 156.455 67.0846C155.448 66.0785 154.882 64.714 154.882 63.2912C154.882 61.8684 155.448 60.5038 156.455 59.4978C157.462 58.4917 158.828 57.9265 160.252 57.9265H188.179C189.603 57.9265 190.969 58.4917 191.976 59.4978C192.983 60.5038 193.549 61.8684 193.549 63.2912C193.549 64.714 192.983 66.0785 191.976 67.0846C190.969 68.0907 189.603 68.6559 188.179 68.6559ZM160.252 58.7848C159.056 58.7848 157.909 59.2596 157.063 60.1047C156.217 60.9498 155.741 62.096 155.741 63.2912C155.741 64.4864 156.217 65.6326 157.063 66.4777C157.909 67.3228 159.056 67.7975 160.252 67.7975H188.179C189.375 67.7975 190.522 67.3228 191.368 66.4777C192.214 65.6326 192.69 64.4864 192.69 63.2912C192.69 62.096 192.214 60.9498 191.368 60.1047C190.522 59.2596 189.375 58.7848 188.179 58.7848H160.252Z" fill="#3F3D56"/>
<path d="M188.179 84.9646H160.252C158.828 84.9646 157.462 84.3994 156.455 83.3933C155.448 82.3873 154.882 81.0227 154.882 79.5999C154.882 78.1771 155.448 76.8126 156.455 75.8065C157.462 74.8004 158.828 74.2352 160.252 74.2352H188.179C189.603 74.2352 190.969 74.8004 191.976 75.8065C192.983 76.8126 193.549 78.1771 193.549 79.5999C193.549 81.0227 192.983 82.3873 191.976 83.3933C190.969 84.3994 189.603 84.9646 188.179 84.9646ZM160.252 75.0936C159.056 75.0936 157.909 75.5683 157.063 76.4134C156.217 77.2586 155.741 78.4048 155.741 79.5999C155.741 80.7951 156.217 81.9413 157.063 82.7864C157.909 83.6315 159.056 84.1063 160.252 84.1063H188.179C189.375 84.1063 190.522 83.6315 191.368 82.7864C192.214 81.9413 192.69 80.7951 192.69 79.5999C192.69 78.4048 192.214 77.2586 191.368 76.4134C190.522 75.5683 189.375 75.0936 188.179 75.0936H160.252Z" fill="#3F3D56"/>
<path d="M188.179 101.273H160.252C158.828 101.273 157.462 100.708 156.455 99.7021C155.448 98.696 154.882 97.3315 154.882 95.9087C154.882 94.4859 155.448 93.1213 156.455 92.1152C157.462 91.1092 158.828 90.544 160.252 90.544H188.179C189.603 90.544 190.969 91.1092 191.976 92.1152C192.983 93.1213 193.549 94.4859 193.549 95.9087C193.549 97.3315 192.983 98.696 191.976 99.7021C190.969 100.708 189.603 101.273 188.179 101.273ZM160.252 91.4023C159.056 91.4023 157.909 91.8771 157.063 92.7222C156.217 93.5673 155.741 94.7135 155.741 95.9087C155.741 97.1038 156.217 98.25 157.063 99.0951C157.909 99.9402 159.056 100.415 160.252 100.415H188.179C189.375 100.415 190.522 99.9402 191.368 99.0951C192.214 98.25 192.69 97.1038 192.69 95.9087C192.69 94.7135 192.214 93.5673 191.368 92.7222C190.522 91.8771 189.375 91.4023 188.179 91.4023H160.252Z" fill="#3F3D56"/>
<path d="M335.47 0.419997L273.166 10.7493C271.256 11.0687 269.551 12.1315 268.425 13.7046C267.299 15.2778 266.842 17.2329 267.157 19.1415L283.406 116.944C283.725 118.851 284.789 120.554 286.364 121.68C287.939 122.805 289.896 123.261 291.807 122.947L354.11 112.617C356.02 112.298 357.725 111.235 358.851 109.662C359.978 108.089 360.434 106.134 360.12 104.225L343.871 6.42301C343.551 4.51538 342.487 2.81222 340.912 1.68692C339.337 0.561625 337.38 0.106021 335.47 0.419997ZM359.272 104.366C359.55 106.05 359.147 107.775 358.153 109.163C357.159 110.551 355.655 111.489 353.97 111.771L291.666 122.1C289.98 122.377 288.253 121.975 286.863 120.982C285.474 119.989 284.535 118.486 284.253 116.803L268.004 19.0009C267.727 17.3169 268.129 15.5916 269.123 14.2034C270.117 12.8153 271.622 11.8776 273.307 11.5961L335.61 1.26677C337.296 0.989383 339.023 1.39125 340.413 2.38422C341.803 3.37718 342.741 4.88019 343.023 6.56355L359.272 104.366Z" fill="#3F3D56"/>
<path d="M324.495 40.5238L296.945 45.0912C295.54 45.3242 294.1 44.99 292.942 44.1622C291.783 43.3344 291.001 42.0808 290.768 40.6772C290.535 39.2736 290.869 37.835 291.698 36.6777C292.527 35.5205 293.782 34.7395 295.187 34.5066L322.736 29.9392C324.141 29.7072 325.58 30.0418 326.738 30.8697C327.896 31.6975 328.677 32.9506 328.91 34.3537C329.143 35.7567 328.809 37.1948 327.981 38.3519C327.153 39.5089 325.899 40.2901 324.495 40.5238ZM295.327 35.3533C294.147 35.5493 293.094 36.2054 292.398 37.1774C291.702 38.1494 291.421 39.3577 291.617 40.5365C291.813 41.7154 292.469 42.7683 293.442 43.4636C294.415 44.159 295.625 44.4398 296.805 44.2444L324.354 39.6771C325.534 39.4811 326.588 38.825 327.284 37.853C327.979 36.881 328.26 35.6727 328.064 34.4939C327.869 33.315 327.212 32.2621 326.239 31.5668C325.266 30.8714 324.057 30.5906 322.877 30.7859L295.327 35.3533Z" fill="#CCCCCC"/>
<path d="M327.73 59.9996L300.181 64.567C299.485 64.6828 298.773 64.6605 298.086 64.5013C297.399 64.3422 296.749 64.0493 296.175 63.6394C295.601 63.2296 295.114 62.7108 294.741 62.1126C294.368 61.5145 294.116 60.8488 294.001 60.1535C293.885 59.4583 293.908 58.7471 294.068 58.0606C294.227 57.3741 294.521 56.7258 294.932 56.1527C295.342 55.5796 295.862 55.093 296.461 54.7206C297.06 54.3482 297.726 54.0973 298.422 53.9823L325.972 49.4149C327.377 49.182 328.817 49.5161 329.975 50.3439C331.134 51.1717 331.916 52.4253 332.149 53.8289C332.382 55.2325 332.048 56.6712 331.219 57.8284C330.39 58.9856 329.135 59.7666 327.73 59.9996ZM298.563 54.8291C297.383 55.0253 296.33 55.6814 295.634 56.6534C294.938 57.6253 294.658 58.8334 294.854 60.0121C295.049 61.1908 295.706 62.2435 296.678 62.9389C297.651 63.6342 298.86 63.9153 300.04 63.7202L327.59 59.1528C328.769 58.9567 329.823 58.3005 330.519 57.3285C331.214 56.3566 331.495 55.1485 331.299 53.9698C331.103 52.7911 330.447 51.7383 329.474 51.043C328.502 50.3476 327.292 50.0666 326.112 50.2617L298.563 54.8291Z" fill="#CCCCCC"/>
<path d="M330.966 79.4753L303.417 84.0427C302.721 84.1585 302.009 84.1362 301.322 83.9771C300.634 83.8179 299.985 83.5251 299.411 83.1152C298.837 82.7053 298.35 82.1865 297.977 81.5884C297.603 80.9903 297.352 80.3246 297.236 79.6293C297.121 78.934 297.144 78.2228 297.303 77.5363C297.463 76.8499 297.757 76.2016 298.167 75.6285C298.578 75.0554 299.098 74.5687 299.697 74.1963C300.296 73.8239 300.962 73.573 301.658 73.4581L329.207 68.8907C330.612 68.6587 332.052 68.9933 333.209 69.8212C334.367 70.649 335.148 71.9021 335.381 73.3052C335.615 74.7082 335.28 76.1463 334.452 77.3034C333.624 78.4604 332.37 79.2416 330.966 79.4753ZM301.799 74.3048C301.214 74.4016 300.655 74.6125 300.152 74.9253C299.649 75.2382 299.212 75.647 298.868 76.1284C298.523 76.6097 298.276 77.1542 298.142 77.7307C298.008 78.3072 297.989 78.9045 298.086 79.4884C298.183 80.0723 298.394 80.6313 298.708 81.1337C299.021 81.636 299.43 82.0718 299.912 82.4161C300.394 82.7604 300.939 83.0064 301.517 83.1403C302.094 83.2741 302.692 83.293 303.276 83.196L330.825 78.6285C331.41 78.5319 331.97 78.3211 332.473 78.0083C332.976 77.6954 333.412 77.2867 333.757 76.8053C334.102 76.3239 334.349 75.7793 334.483 75.2028C334.617 74.6262 334.636 74.0288 334.539 73.4448C334.442 72.8609 334.231 72.3017 333.917 71.7993C333.604 71.2969 333.194 70.8612 332.712 70.5169C332.23 70.1726 331.685 69.9265 331.108 69.7928C330.531 69.6591 329.933 69.6403 329.348 69.7374L301.799 74.3048Z" fill="#CCCCCC"/>
<path d="M334.202 98.9511L306.652 103.518C305.957 103.634 305.245 103.611 304.558 103.452C303.871 103.292 303.222 102.999 302.649 102.589C302.075 102.18 301.588 101.661 301.215 101.063C300.842 100.465 300.591 99.7995 300.475 99.1045C300.36 98.4095 300.383 97.6986 300.542 97.0124C300.702 96.3261 300.995 95.678 301.405 95.105C301.816 94.532 302.335 94.0453 302.933 93.6728C303.532 93.3003 304.198 93.0492 304.894 92.9338L332.443 88.3664C333.848 88.1344 335.287 88.4691 336.445 89.2969C337.603 90.1247 338.384 91.3779 338.617 92.7809C338.85 94.184 338.516 95.6221 337.688 96.7791C336.86 97.9361 335.606 98.7174 334.202 98.9511ZM305.035 93.7806C304.45 93.8775 303.891 94.0884 303.388 94.4013C302.885 94.7143 302.449 95.1231 302.104 95.6044C301.408 96.5765 301.127 97.7849 301.323 98.964C301.519 100.143 302.176 101.196 303.149 101.891C304.122 102.587 305.332 102.867 306.512 102.672L334.061 98.1043C335.241 97.9084 336.295 97.2523 336.991 96.2803C337.687 95.3083 337.967 94.1 337.772 92.9211C337.576 91.7423 336.919 90.6894 335.946 89.994C334.974 89.2987 333.764 89.0178 332.584 89.2132L305.035 93.7806Z" fill="#CCCCCC"/>
<path d="M344.389 12.1639L268.523 24.7418C268.467 24.7513 268.41 24.7496 268.355 24.737C268.3 24.7243 268.248 24.701 268.202 24.6682C268.156 24.6354 268.116 24.5939 268.086 24.5459C268.057 24.498 268.036 24.4447 268.027 24.389C268.018 24.3332 268.02 24.2762 268.033 24.2212C268.045 24.1662 268.069 24.1143 268.102 24.0684C268.135 24.0225 268.177 23.9836 268.225 23.9538C268.273 23.9241 268.326 23.9041 268.382 23.8951L344.248 11.3172C344.304 11.3077 344.361 11.3094 344.416 11.322C344.471 11.3346 344.523 11.358 344.569 11.3908C344.616 11.4236 344.655 11.4651 344.685 11.513C344.715 11.561 344.735 11.6143 344.744 11.67C344.753 11.7258 344.751 11.7828 344.739 11.8378C344.726 11.8928 344.702 11.9447 344.669 11.9906C344.636 12.0365 344.594 12.0754 344.546 12.1052C344.498 12.1349 344.445 12.1549 344.389 12.1639Z" fill="#3F3D56"/>
<path d="M276.764 19.6828C278.425 19.6828 279.772 18.3377 279.772 16.6785C279.772 15.0193 278.425 13.6743 276.764 13.6743C275.103 13.6743 273.757 15.0193 273.757 16.6785C273.757 18.3377 275.103 19.6828 276.764 19.6828Z" fill="#23A6F0"/>
<path d="M336.667 5.00698L328.191 6.41233C328.078 6.43054 327.964 6.40358 327.871 6.33734C327.779 6.27111 327.717 6.17101 327.698 6.05898C327.679 5.94694 327.706 5.8321 327.772 5.73961C327.838 5.64713 327.938 5.58455 328.05 5.56557L336.527 4.16021C336.639 4.14197 336.754 4.16892 336.846 4.23516C336.938 4.30139 337.001 4.40149 337.019 4.51355C337.038 4.6256 337.011 4.74047 336.945 4.83296C336.879 4.92545 336.779 4.98803 336.667 5.00698Z" fill="#3F3D56"/>
<path d="M337.089 7.5473L328.613 8.95265C328.5 8.97086 328.386 8.9439 328.293 8.87766C328.201 8.81143 328.139 8.71133 328.12 8.59929C328.101 8.48725 328.128 8.37242 328.194 8.27993C328.26 8.18745 328.36 8.12486 328.472 8.10588L336.949 6.70053C337.061 6.68232 337.176 6.70929 337.268 6.77552C337.36 6.84175 337.423 6.94185 337.441 7.05389C337.46 7.16592 337.433 7.28076 337.367 7.37324C337.301 7.46573 337.201 7.52832 337.089 7.5473Z" fill="#3F3D56"/>
<path d="M337.511 10.0876L329.035 11.493C328.979 11.5024 328.922 11.5007 328.867 11.4881C328.812 11.4754 328.76 11.4521 328.714 11.4193C328.668 11.3865 328.629 11.345 328.599 11.297C328.569 11.2491 328.548 11.1958 328.539 11.1401C328.53 11.0844 328.532 11.0274 328.545 10.9724C328.557 10.9174 328.581 10.8654 328.614 10.8196C328.647 10.7737 328.689 10.7347 328.737 10.705C328.785 10.6752 328.838 10.6553 328.894 10.6462L337.371 9.24084C337.426 9.2314 337.484 9.23305 337.539 9.24569C337.594 9.25833 337.646 9.28171 337.692 9.31449C337.738 9.34727 337.777 9.38881 337.807 9.43673C337.837 9.48465 337.857 9.53799 337.866 9.59372C337.876 9.64944 337.874 9.70644 337.861 9.76145C337.848 9.81646 337.825 9.86839 337.792 9.91428C337.759 9.96016 337.717 9.9991 337.669 10.0288C337.621 10.0586 337.567 10.0786 337.511 10.0876Z" fill="#3F3D56"/>
<path d="M54.9928 70.5872H22.7705C21.8023 70.5861 20.874 70.2014 20.1894 69.5175C19.5048 68.8336 19.1197 67.9064 19.1186 66.9392V34.3217C19.1197 33.3545 19.5048 32.4272 20.1894 31.7433C20.874 31.0594 21.8023 30.6748 22.7705 30.6737H54.9928C55.961 30.6748 56.8893 31.0594 57.5739 31.7433C58.2585 32.4272 58.6436 33.3545 58.6447 34.3217V66.9392C58.6436 67.9064 58.2585 68.8336 57.5739 69.5175C56.8893 70.2014 55.961 70.5861 54.9928 70.5872Z" fill="#23A6F0"/>
<path d="M52.6298 94.8357H24.7038C23.2795 94.8357 21.9135 94.2705 20.9064 93.2644C19.8992 92.2583 19.3334 90.8938 19.3334 89.471C19.3334 88.0482 19.8992 86.6837 20.9064 85.6776C21.9135 84.6715 23.2795 84.1063 24.7038 84.1063H52.6298C54.0542 84.1063 55.4201 84.6715 56.4273 85.6776C57.4344 86.6837 58.0002 88.0482 58.0002 89.471C58.0002 90.8938 57.4344 92.2583 56.4273 93.2644C55.4201 94.2705 54.0542 94.8357 52.6298 94.8357ZM24.7038 84.9646C23.5074 84.9646 22.36 85.4394 21.514 86.2845C20.668 87.1296 20.1927 88.2758 20.1927 89.471C20.1927 90.6662 20.668 91.8124 21.514 92.6575C22.36 93.5026 23.5074 93.9774 24.7038 93.9774H52.6298C53.8263 93.9774 54.9737 93.5026 55.8197 92.6575C56.6657 91.8124 57.141 90.6662 57.141 89.471C57.141 88.2758 56.6657 87.1296 55.8197 86.2845C54.9737 85.4394 53.8263 84.9646 52.6298 84.9646H24.7038Z" fill="#3F3D56"/>
<path d="M57.7854 69.9434C57.729 69.9435 57.6731 69.9324 57.6209 69.9109C57.5688 69.8893 57.5215 69.8576 57.4816 69.8177L19.674 32.0501C19.6337 32.0103 19.6017 31.963 19.5798 31.9108C19.5578 31.8586 19.5465 31.8026 19.5463 31.746C19.5461 31.6894 19.5572 31.6334 19.5788 31.5811C19.6004 31.5287 19.6321 31.4812 19.6722 31.4412C19.7122 31.4012 19.7598 31.3695 19.8122 31.3479C19.8646 31.3264 19.9207 31.3153 19.9773 31.3155C20.034 31.3157 20.09 31.3271 20.1423 31.349C20.1945 31.3709 20.2419 31.4029 20.2817 31.4432L58.0892 69.2108C58.1493 69.2708 58.1902 69.3473 58.2068 69.4305C58.2233 69.5138 58.2148 69.6001 58.1823 69.6785C58.1498 69.7569 58.0947 69.8239 58.0241 69.8711C57.9534 69.9182 57.8704 69.9434 57.7854 69.9434Z" fill="white"/>
<path d="M19.9779 69.9434C19.8929 69.9434 19.8098 69.9183 19.7392 69.8711C19.6685 69.824 19.6135 69.7569 19.581 69.6785C19.5484 69.6001 19.5399 69.5138 19.5565 69.4306C19.5731 69.3473 19.614 69.2709 19.674 69.2108L57.4816 31.4432C57.5214 31.403 57.5688 31.3709 57.621 31.349C57.6732 31.3271 57.7293 31.3157 57.786 31.3156C57.8426 31.3154 57.8987 31.3264 57.9511 31.348C58.0035 31.3695 58.0511 31.4012 58.0911 31.4412C58.1312 31.4812 58.1629 31.5288 58.1845 31.5811C58.2061 31.6334 58.2172 31.6895 58.217 31.746C58.2168 31.8026 58.2054 31.8586 58.1835 31.9108C58.1616 31.963 58.1295 32.0103 58.0892 32.0501L20.2817 69.8177C20.2418 69.8576 20.1945 69.8893 20.1423 69.9109C20.0902 69.9325 20.0343 69.9435 19.9779 69.9434Z" fill="white"/>
<path d="M351.891 113.801C352.09 113.157 352.145 112.477 352.053 111.809C351.96 111.142 351.722 110.502 351.356 109.937C350.989 109.371 350.503 108.892 349.931 108.534C349.359 108.176 348.716 107.948 348.046 107.866L325.992 82.1223L320.848 87.5175L342.815 112.201C342.751 113.334 343.105 114.451 343.81 115.341C344.516 116.23 345.523 116.831 346.642 117.028C347.761 117.225 348.913 117.006 349.88 116.411C350.848 115.816 351.563 114.887 351.891 113.801Z" fill="#A0616A"/>
<path d="M332.38 87.5456L324.497 93.3011C324.273 93.4649 324.016 93.5784 323.743 93.634C323.471 93.6896 323.19 93.6859 322.92 93.6233C322.649 93.5606 322.395 93.4404 322.175 93.2708C321.955 93.1013 321.774 92.8864 321.645 92.6407L317.115 84.0333C316.282 82.8822 315.941 81.4483 316.166 80.0461C316.39 78.644 317.162 77.3879 318.312 76.5534C319.462 75.7189 320.897 75.374 322.301 75.5944C323.705 75.8148 324.965 76.5825 325.803 77.7291L332.617 84.6307C332.812 84.8284 332.962 85.0657 333.057 85.3265C333.152 85.5873 333.189 85.8656 333.167 86.1422C333.144 86.4188 333.062 86.6874 332.927 86.9295C332.791 87.1717 332.605 87.3819 332.38 87.5456Z" fill="#23A6F0"/>
<path d="M317.168 70.3464C322.996 70.3464 327.72 65.6271 327.72 59.8054C327.72 53.9837 322.996 49.2644 317.168 49.2644C311.34 49.2644 306.616 53.9837 306.616 59.8054C306.616 65.6271 311.34 70.3464 317.168 70.3464Z" fill="#A0616A"/>
<path d="M321.752 107.362C321.642 107.362 321.533 107.353 321.425 107.335L302.91 104.221C302.464 104.147 302.058 103.919 301.764 103.576C301.469 103.234 301.304 102.799 301.298 102.347C301.241 98.1156 301.558 87.434 305.708 79.6538C307.006 77.222 309.144 75.3438 311.724 74.3687C314.305 73.3936 317.152 73.3878 319.736 74.3526C322.32 75.3173 324.465 77.1869 325.773 79.6135C327.081 82.0401 327.461 84.8585 326.845 87.5446C325.456 93.5209 324.394 99.5684 323.664 105.66C323.609 106.128 323.383 106.56 323.031 106.873C322.679 107.187 322.223 107.36 321.752 107.362Z" fill="#2F2E41"/>
<path d="M282.933 72.6537C282.986 72.8853 283.02 73.1206 283.036 73.3576L301.492 83.9935L305.978 81.4137L310.76 87.6678L303.263 93.0057C302.657 93.4369 301.928 93.6603 301.184 93.6422C300.441 93.6241 299.723 93.3655 299.139 92.9053L280.108 77.9074C279.249 78.225 278.314 78.2738 277.426 78.0474C276.539 77.8211 275.742 77.3302 275.14 76.6401C274.539 75.95 274.162 75.0934 274.06 74.1843C273.958 73.2751 274.136 72.3565 274.569 71.5505C275.003 70.7446 275.671 70.0895 276.487 69.6725C277.302 69.2555 278.225 69.0963 279.133 69.2161C280.041 69.3358 280.89 69.7289 281.569 70.3429C282.248 70.957 282.724 71.763 282.933 72.6537Z" fill="#A0616A"/>
<path d="M301.745 82.9303C301.801 82.6584 301.914 82.4017 302.078 82.1776C302.242 81.9535 302.453 81.7675 302.695 81.6321L311.165 76.9013C312.29 76.0339 313.714 75.6475 315.124 75.827C316.534 76.0064 317.815 76.737 318.686 77.8586C319.558 78.9802 319.949 80.4013 319.773 81.8103C319.597 83.2193 318.87 84.5012 317.749 85.3751L310.997 92.3798C310.804 92.5797 310.57 92.7357 310.312 92.8373C310.053 92.9389 309.776 92.9836 309.499 92.9684C309.221 92.9533 308.95 92.8785 308.704 92.7493C308.458 92.6202 308.243 92.4395 308.074 92.2198L302.109 84.4972C301.939 84.2775 301.818 84.0238 301.756 83.7534C301.693 83.483 301.689 83.2022 301.745 82.9303Z" fill="#23A6F0"/>
<path d="M292.81 201.901H287.542L286.302 181.672L292.811 181.606L292.81 201.901Z" fill="#A0616A"/>
<path d="M294.153 207.001L277.169 207.001V206.786C277.169 205.919 277.34 205.06 277.672 204.259C278.005 203.458 278.492 202.73 279.105 202.117C279.719 201.504 280.448 201.017 281.25 200.685C282.052 200.353 282.912 200.183 283.78 200.183L294.153 200.183L294.153 207.001Z" fill="#2F2E41"/>
<path d="M343.077 201.901H337.809L335.304 181.606H343.077L343.077 201.901Z" fill="#A0616A"/>
<path d="M344.42 207.001L327.436 207.001V206.786C327.436 205.919 327.607 205.06 327.939 204.259C328.271 203.458 328.758 202.73 329.372 202.117C329.986 201.504 330.715 201.017 331.517 200.685C332.319 200.353 333.179 200.183 334.047 200.183L344.42 200.183L344.42 207.001Z" fill="#2F2E41"/>
<path d="M337.088 191.377C336.687 191.376 336.297 191.251 335.969 191.019C335.642 190.788 335.395 190.461 335.261 190.083L318.476 142.175C318.411 141.992 318.298 141.829 318.148 141.705C317.999 141.581 317.818 141.499 317.626 141.47C317.433 141.44 317.237 141.463 317.056 141.536C316.876 141.61 316.719 141.731 316.602 141.886L300.229 163.694C300.102 163.865 300.012 164.06 299.965 164.267L294.747 187.52C294.654 187.933 294.427 188.304 294.102 188.576C293.777 188.849 293.372 189.007 292.949 189.027L286.7 189.31C286.43 189.324 286.161 189.281 285.909 189.183C285.658 189.085 285.43 188.935 285.241 188.743C285.051 188.552 284.903 188.323 284.807 188.072C284.71 187.82 284.667 187.552 284.681 187.283L285.771 166.059C286.114 159.193 287.885 152.474 290.971 146.329C297.83 132.666 301.798 117.739 302.629 102.477L302.642 102.239L321.869 105.295L324.755 109.287C326.043 111.088 327.438 112.81 328.933 114.444C332.609 118.425 333.712 123.749 333.991 127.515C334.351 132.142 335.006 136.742 335.954 141.287L345.489 188.093C345.561 188.359 345.575 188.637 345.53 188.908C345.485 189.18 345.383 189.439 345.23 189.667C345.076 189.896 344.876 190.09 344.642 190.235C344.408 190.38 344.146 190.473 343.873 190.509L337.336 191.361C337.254 191.371 337.171 191.377 337.088 191.377Z" fill="#2F2E41"/>
<path d="M328.836 52.4891C327.998 49.9508 327.379 47.3454 326.986 44.7015C326.863 43.1623 327.258 41.5061 328.38 40.444C330.48 38.4564 334.048 39.4031 336.244 41.2841C339.418 44.0027 341.001 48.1805 341.599 52.314C342.198 56.4476 341.934 60.6509 342.078 64.825C342.222 68.999 342.82 73.2909 344.95 76.8847C347.081 80.4784 351.034 83.2369 355.203 82.9311C356.886 82.8402 358.485 82.1637 359.72 81.0188C360.327 80.4423 360.787 79.7289 361.06 78.9384C361.334 78.1479 361.414 77.3033 361.293 76.4756C363.425 80.2877 362.344 85.4544 359.165 88.4512C355.987 91.448 351.097 92.2952 346.918 91.0157C342.739 89.7362 339.299 86.5279 337.245 82.6739C335.19 78.82 334.438 74.368 334.547 70.003C334.63 66.6511 335.201 63.2717 334.634 59.9669C334.067 56.6621 331.996 53.3065 328.731 52.5283L328.836 52.4891Z" fill="#2F2E41"/>
<path d="M314.174 56.834C313.617 58.6916 311.488 59.837 309.573 59.5228C307.657 59.2087 306.082 57.633 305.5 55.7832C304.974 53.8939 305.19 51.8753 306.103 50.1393C306.606 49.0987 307.309 48.1675 308.173 47.3989C309.037 46.6303 310.044 46.0394 311.137 45.66C312.236 45.2962 313.406 45.2016 314.549 45.3841C315.692 45.5665 316.775 46.0208 317.705 46.7085C317.804 46.2912 318.013 45.9078 318.31 45.5979C318.607 45.2879 318.981 45.0625 319.394 44.9449C320.225 44.7211 321.102 44.734 321.927 44.9823C324.303 45.6586 326.361 47.1545 327.737 49.2042C329.094 51.2476 329.993 53.5608 330.37 55.9843C331.018 59.6189 330.779 63.5904 328.735 66.6665C326.692 69.7426 322.511 71.5589 319.12 70.0924C318.908 69.0124 319.409 67.9249 319.989 66.9891C320.568 66.0532 321.255 65.1416 321.478 64.0639C321.701 62.9861 321.274 61.6678 320.23 61.3154C319.34 61.0147 318.391 61.5018 317.453 61.5606C316.92 61.594 316.388 61.4869 315.91 61.2501C315.432 61.0132 315.024 60.6549 314.729 60.2111C314.433 59.7673 314.259 59.2536 314.225 58.7216C314.19 58.1896 314.297 57.6579 314.533 57.1798L314.174 56.834Z" fill="#2F2E41"/>
<path d="M391.744 207.28H228.055C227.941 207.28 227.832 207.235 227.751 207.155C227.67 207.074 227.625 206.965 227.625 206.851C227.625 206.737 227.67 206.628 227.751 206.548C227.832 206.467 227.941 206.422 228.055 206.422H391.744C391.858 206.422 391.968 206.467 392.048 206.548C392.129 206.628 392.174 206.737 392.174 206.851C392.174 206.965 392.129 207.074 392.048 207.155C391.968 207.235 391.858 207.28 391.744 207.28Z" fill="#CCCCCC"/>
</svg>
