<svg width="192" height="192" viewBox="0 0 192 192" fill="none" xmlns="http://www.w3.org/2000/svg">
<path d="M77.147 1.9687C45.147 8.90203 17.2803 32.102 6.34699 61.1687C-9.91968 104.635 5.81366 151.835 45.147 177.169C65.147 190.102 90.4803 194.769 114.214 189.835C159.28 180.635 191.814 141.302 191.814 95.8354C191.814 77.702 184.747 55.9687 174.08 41.0354C151.814 9.70203 113.414 -5.76463 77.147 1.9687ZM114.614 7.1687C133.147 11.1687 153.414 23.302 165.414 37.702C187.414 64.102 192.614 101.702 178.614 132.502C157.547 179.035 103.814 199.569 58.2137 178.235C37.947 168.769 24.0803 155.302 14.347 135.302C-7.51968 90.3687 11.4137 36.102 56.4803 14.3687C74.6137 5.70203 95.4137 3.1687 114.614 7.1687Z" fill="#8605BE"/>
<path d="M46.4803 31.5687C45.4137 31.9687 42.8803 33.8354 40.8803 35.702C37.6803 38.6354 37.147 40.2354 37.147 45.8354C37.2803 55.5687 42.747 61.302 52.2137 61.302C59.4137 61.302 66.4803 54.3687 66.4803 47.4354C66.4803 35.8354 56.4803 27.9687 46.4803 31.5687Z" fill="#8605BE"/>
<path d="M37.147 106.635H66.4803V78.6354H37.147V106.635Z" fill="#8605BE"/>
<path d="M134.347 130.902C131.28 136.235 127.28 143.035 125.68 146.102C123.947 149.035 122.48 152.235 122.48 153.035C122.48 154.235 127.68 154.635 140.48 154.635C150.347 154.635 158.48 154.369 158.48 153.969C158.48 153.302 141.414 122.635 140.48 121.569C140.214 121.302 137.547 125.435 134.347 130.902Z" fill="#8605BE"/>
</svg>
