<svg width="36" height="36" viewBox="0 0 36 36" fill="none" xmlns="http://www.w3.org/2000/svg">
<g clip-path="url(#clip0_890_607)">
<rect width="36" height="36" rx="18" fill="#23A6F0"/>
<path fill-rule="evenodd" clip-rule="evenodd" d="M18.011 18.586L24.582 12.015C24.789 11.808 25.077 11.702 25.369 11.726C25.661 11.749 25.928 11.899 26.1 12.137C26.1 12.137 26.125 12.173 26.127 12.175C27.305 13.816 28 15.827 28 18C28 23.519 23.519 28 18 28C12.481 28 8 23.519 8 18C8 12.481 12.481 8 18 8C19.596 8 21.106 8.375 22.445 9.042C22.94 9.287 23.141 9.888 22.895 10.382C22.649 10.876 22.049 11.078 21.555 10.832C20.484 10.299 19.276 10 18 10C13.585 10 10 13.585 10 18C10 22.415 13.585 26 18 26C22.415 26 26 22.415 26 18C26 16.674 25.677 15.422 25.104 14.321L18.719 20.707C18.328 21.098 17.695 21.098 17.304 20.707L14.304 17.707C13.914 17.317 13.914 16.683 14.304 16.293C14.695 15.903 15.328 15.903 15.719 16.293L18.011 18.586Z" fill="white"/>
</g>
<defs>
<clipPath id="clip0_890_607">
<rect width="36" height="36" rx="18" fill="white"/>
</clipPath>
</defs>
</svg>
